<svg width="960" height="60" viewBox="0 0 960 60" fill="none" xmlns="http://www.w3.org/2000/svg">
<path d="M390.167 42V26.16H396.448C397.519 26.16 398.395 26.3763 399.077 26.809C399.766 27.2343 400.276 27.7807 400.606 28.448C400.943 29.1153 401.112 29.8047 401.112 30.516C401.112 31.3887 400.903 32.1293 400.485 32.738C400.074 33.3467 399.513 33.7573 398.802 33.97V33.42C399.799 33.6473 400.555 34.1203 401.068 34.839C401.589 35.5577 401.849 36.3753 401.849 37.292C401.849 38.2307 401.669 39.052 401.31 39.756C400.951 40.46 400.415 41.01 399.704 41.406C399 41.802 398.127 42 397.086 42H390.167ZM392.851 39.503H396.756C397.218 39.503 397.632 39.4113 397.999 39.228C398.366 39.0373 398.652 38.7733 398.857 38.436C399.07 38.0913 399.176 37.6843 399.176 37.215C399.176 36.7897 399.084 36.4083 398.901 36.071C398.718 35.7337 398.45 35.466 398.098 35.268C397.746 35.0627 397.324 34.96 396.833 34.96H392.851V39.503ZM392.851 32.485H396.415C396.796 32.485 397.137 32.4117 397.438 32.265C397.739 32.1183 397.977 31.902 398.153 31.616C398.329 31.33 398.417 30.978 398.417 30.56C398.417 30.01 398.241 29.5517 397.889 29.185C397.537 28.8183 397.046 28.635 396.415 28.635H392.851V32.485ZM404.035 42L404.024 30.12H406.675V34.08H408.006C408.336 34.08 408.706 34.0873 409.117 34.102C409.535 34.1167 409.883 34.1497 410.162 34.201C410.829 34.3477 411.398 34.5823 411.867 34.905C412.344 35.2277 412.707 35.6493 412.956 36.17C413.205 36.6907 413.33 37.3177 413.33 38.051C413.33 39.0997 413.059 39.9393 412.516 40.57C411.973 41.1933 411.214 41.6187 410.239 41.846C409.953 41.912 409.597 41.956 409.172 41.978C408.747 41.9927 408.369 42 408.039 42H404.035ZM406.675 39.921H408.27C408.431 39.921 408.611 39.9137 408.809 39.899C409.007 39.8843 409.194 39.8513 409.37 39.8C409.7 39.712 409.993 39.514 410.25 39.206C410.507 38.8907 410.635 38.5057 410.635 38.051C410.635 37.5743 410.507 37.182 410.25 36.874C409.993 36.566 409.678 36.3643 409.304 36.269C409.128 36.225 408.948 36.1957 408.765 36.181C408.589 36.1663 408.424 36.159 408.27 36.159H406.675V39.921ZM414.573 42V30.12H417.224V42H414.573ZM425.249 42.352C424.119 42.3373 423.159 42.0843 422.367 41.593C421.575 41.1017 420.955 40.4087 420.508 39.514C420.06 38.6193 419.789 37.5633 419.694 36.346C419.65 35.7227 419.646 35.026 419.683 34.256C419.719 33.486 419.8 32.7343 419.925 32.001C420.049 31.2677 420.222 30.6443 420.442 30.131C420.669 29.6177 420.966 29.1447 421.333 28.712C421.699 28.272 422.095 27.9053 422.521 27.612C423.005 27.2747 423.529 27.0143 424.094 26.831C424.666 26.6477 425.263 26.5083 425.887 26.413C426.51 26.3103 427.152 26.2187 427.812 26.138C428.472 26.0573 429.124 25.9547 429.77 25.83L430.012 28.173C429.601 28.2757 429.124 28.3563 428.582 28.415C428.046 28.4663 427.489 28.525 426.91 28.591C426.338 28.657 425.791 28.7523 425.271 28.877C424.75 29.0017 424.299 29.185 423.918 29.427C423.39 29.7497 422.986 30.2117 422.708 30.813C422.429 31.4143 422.264 32.0487 422.213 32.716C422.667 32.0413 423.232 31.5683 423.907 31.297C424.589 31.0183 425.278 30.879 425.975 30.879C427.031 30.879 427.936 31.1283 428.692 31.627C429.454 32.1257 430.037 32.804 430.441 33.662C430.851 34.5127 431.057 35.4623 431.057 36.511C431.057 37.6843 430.811 38.711 430.32 39.591C429.828 40.471 429.146 41.153 428.274 41.637C427.401 42.121 426.393 42.3593 425.249 42.352ZM425.381 39.866C426.334 39.866 427.053 39.5727 427.537 38.986C428.028 38.392 428.274 37.6037 428.274 36.621C428.274 35.6163 428.021 34.8243 427.515 34.245C427.016 33.6657 426.305 33.376 425.381 33.376C424.442 33.376 423.727 33.6657 423.236 34.245C422.744 34.8243 422.499 35.6163 422.499 36.621C422.499 37.6477 422.748 38.447 423.247 39.019C423.745 39.5837 424.457 39.866 425.381 39.866ZM438.88 42.33C437.678 42.33 436.622 42.0697 435.712 41.549C434.803 41.0283 434.092 40.306 433.578 39.382C433.072 38.458 432.819 37.3947 432.819 36.192C432.819 34.894 433.069 33.7683 433.567 32.815C434.066 31.8543 434.759 31.11 435.646 30.582C436.534 30.054 437.56 29.79 438.726 29.79C439.958 29.79 441.003 30.0797 441.861 30.659C442.727 31.231 443.368 32.0413 443.786 33.09C444.204 34.1387 444.362 35.3743 444.259 36.797H441.63V35.829C441.623 34.5383 441.396 33.596 440.948 33.002C440.501 32.408 439.797 32.111 438.836 32.111C437.751 32.111 436.944 32.4483 436.416 33.123C435.888 33.7903 435.624 34.7693 435.624 36.06C435.624 37.2627 435.888 38.194 436.416 38.854C436.944 39.514 437.714 39.844 438.726 39.844C439.379 39.844 439.94 39.701 440.409 39.415C440.886 39.1217 441.253 38.7 441.509 38.15L444.127 38.942C443.673 40.0127 442.969 40.845 442.015 41.439C441.069 42.033 440.024 42.33 438.88 42.33ZM434.788 36.797V34.795H442.961V36.797H434.788ZM452.423 42.33C451.264 42.33 450.292 42.055 449.508 41.505C448.723 40.955 448.133 40.207 447.737 39.261C447.341 38.3077 447.143 37.2407 447.143 36.06C447.143 34.8647 447.341 33.794 447.737 32.848C448.133 31.902 448.712 31.1577 449.475 30.615C450.245 30.065 451.194 29.79 452.324 29.79C453.446 29.79 454.417 30.065 455.239 30.615C456.067 31.1577 456.709 31.902 457.164 32.848C457.618 33.7867 457.846 34.8573 457.846 36.06C457.846 37.248 457.622 38.315 457.175 39.261C456.727 40.207 456.097 40.955 455.283 41.505C454.469 42.055 453.515 42.33 452.423 42.33ZM446.692 47.28V30.12H449.035V38.458H449.365V47.28H446.692ZM452.016 39.954C452.705 39.954 453.273 39.7817 453.721 39.437C454.168 39.0923 454.498 38.6267 454.711 38.04C454.931 37.446 455.041 36.786 455.041 36.06C455.041 35.3413 454.931 34.6887 454.711 34.102C454.491 33.508 454.15 33.0387 453.688 32.694C453.226 32.342 452.639 32.166 451.928 32.166C451.253 32.166 450.703 32.331 450.278 32.661C449.852 32.9837 449.537 33.4383 449.332 34.025C449.134 34.6043 449.035 35.2827 449.035 36.06C449.035 36.83 449.134 37.5083 449.332 38.095C449.537 38.6817 449.856 39.14 450.289 39.47C450.729 39.7927 451.304 39.954 452.016 39.954ZM470.566 30.12V42H468.025V34.245L462.371 42H460.248V30.12H462.789V37.677L468.465 30.12H470.566ZM483.219 42.33C481.994 42.33 480.949 42.0587 480.084 41.516C479.218 40.966 478.555 40.218 478.093 39.272C477.638 38.326 477.407 37.2553 477.4 36.06C477.407 34.8427 477.645 33.7647 478.115 32.826C478.591 31.88 479.266 31.1393 480.139 30.604C481.011 30.0613 482.049 29.79 483.252 29.79C484.601 29.79 485.741 30.131 486.673 30.813C487.611 31.4877 488.224 32.4117 488.51 33.585L485.87 34.3C485.664 33.662 485.323 33.167 484.847 32.815C484.37 32.4557 483.827 32.276 483.219 32.276C482.529 32.276 481.961 32.441 481.514 32.771C481.066 33.0937 480.736 33.541 480.524 34.113C480.311 34.685 480.205 35.334 480.205 36.06C480.205 37.1893 480.458 38.1023 480.964 38.799C481.47 39.4957 482.221 39.844 483.219 39.844C483.923 39.844 484.476 39.6827 484.88 39.36C485.29 39.0373 485.598 38.5717 485.804 37.963L488.51 38.568C488.143 39.778 487.501 40.7093 486.585 41.362C485.668 42.0073 484.546 42.33 483.219 42.33ZM490.692 42V30.12H496.093C496.481 30.12 496.844 30.142 497.182 30.186C497.519 30.23 497.809 30.285 498.051 30.351C498.623 30.5197 499.129 30.8497 499.569 31.341C500.009 31.825 500.229 32.496 500.229 33.354C500.229 33.86 500.148 34.278 499.987 34.608C499.825 34.9307 499.613 35.202 499.349 35.422C499.224 35.5247 499.096 35.6127 498.964 35.686C498.832 35.7593 498.7 35.818 498.568 35.862C498.854 35.906 499.125 35.9903 499.382 36.115C499.785 36.313 500.122 36.6063 500.394 36.995C500.672 37.3837 500.812 37.93 500.812 38.634C500.812 39.4333 500.617 40.108 500.229 40.658C499.847 41.2007 499.286 41.5783 498.546 41.791C498.274 41.8643 497.963 41.9193 497.611 41.956C497.259 41.9853 496.899 42 496.533 42H490.692ZM493.376 39.954H496.346C496.5 39.954 496.668 39.9393 496.852 39.91C497.035 39.8807 497.2 39.8403 497.347 39.789C497.611 39.6937 497.801 39.525 497.919 39.283C498.043 39.041 498.106 38.788 498.106 38.524C498.106 38.1647 498.014 37.8787 497.831 37.666C497.655 37.446 497.442 37.2993 497.193 37.226C497.046 37.1673 496.885 37.1343 496.709 37.127C496.54 37.1123 496.401 37.105 496.291 37.105H493.376V39.954ZM493.376 35.026H495.576C495.803 35.026 496.023 35.015 496.236 34.993C496.456 34.9637 496.639 34.916 496.786 34.85C497.028 34.7547 497.204 34.5933 497.314 34.366C497.431 34.1387 497.49 33.8857 497.49 33.607C497.49 33.3137 497.424 33.0497 497.292 32.815C497.167 32.573 496.965 32.4117 496.687 32.331C496.503 32.2577 496.28 32.2173 496.016 32.21C495.759 32.2027 495.594 32.199 495.521 32.199H493.376V35.026ZM508.25 42.33C507.062 42.33 506.024 42.0623 505.137 41.527C504.25 40.9917 503.56 40.2547 503.069 39.316C502.585 38.37 502.343 37.2847 502.343 36.06C502.343 34.8133 502.592 33.7207 503.091 32.782C503.59 31.8433 504.283 31.11 505.17 30.582C506.057 30.054 507.084 29.79 508.25 29.79C509.445 29.79 510.487 30.0577 511.374 30.593C512.261 31.1283 512.951 31.869 513.442 32.815C513.933 33.7537 514.179 34.8353 514.179 36.06C514.179 37.292 513.93 38.381 513.431 39.327C512.94 40.2657 512.25 41.0027 511.363 41.538C510.476 42.066 509.438 42.33 508.25 42.33ZM508.25 39.844C509.306 39.844 510.091 39.492 510.604 38.788C511.117 38.084 511.374 37.1747 511.374 36.06C511.374 34.9087 511.114 33.992 510.593 33.31C510.072 32.6207 509.291 32.276 508.25 32.276C507.539 32.276 506.952 32.4373 506.49 32.76C506.035 33.0753 505.698 33.519 505.478 34.091C505.258 34.6557 505.148 35.312 505.148 36.06C505.148 37.2113 505.408 38.1317 505.929 38.821C506.457 39.503 507.231 39.844 508.25 39.844ZM522.092 28.778C521.483 28.778 520.926 28.6277 520.42 28.327C519.914 28.0263 519.51 27.6267 519.21 27.128C518.909 26.622 518.759 26.061 518.759 25.445H520.827C520.827 25.797 520.948 26.0977 521.19 26.347C521.439 26.589 521.74 26.71 522.092 26.71C522.444 26.71 522.741 26.589 522.983 26.347C523.232 26.0977 523.357 25.797 523.357 25.445H525.425C525.425 26.061 525.274 26.622 524.974 27.128C524.673 27.6267 524.27 28.0263 523.764 28.327C523.258 28.6277 522.7 28.778 522.092 28.778ZM526.899 30.12V42H524.358V34.245L518.704 42H516.581V30.12H519.122V37.677L524.798 30.12H526.899ZM539.551 42.33C538.326 42.33 537.281 42.0587 536.416 41.516C535.55 40.966 534.887 40.218 534.425 39.272C533.97 38.326 533.739 37.2553 533.732 36.06C533.739 34.8427 533.977 33.7647 534.447 32.826C534.923 31.88 535.598 31.1393 536.471 30.604C537.343 30.0613 538.381 29.79 539.584 29.79C540.933 29.79 542.073 30.131 543.005 30.813C543.943 31.4877 544.556 32.4117 544.842 33.585L542.202 34.3C541.996 33.662 541.655 33.167 541.179 32.815C540.702 32.4557 540.159 32.276 539.551 32.276C538.861 32.276 538.293 32.441 537.846 32.771C537.398 33.0937 537.068 33.541 536.856 34.113C536.643 34.685 536.537 35.334 536.537 36.06C536.537 37.1893 536.79 38.1023 537.296 38.799C537.802 39.4957 538.553 39.844 539.551 39.844C540.255 39.844 540.808 39.6827 541.212 39.36C541.622 39.0373 541.93 38.5717 542.136 37.963L544.842 38.568C544.475 39.778 543.833 40.7093 542.917 41.362C542 42.0073 540.878 42.33 539.551 42.33ZM550.175 42.33C549.317 42.33 548.591 42.1687 547.997 41.846C547.403 41.516 546.952 41.0797 546.644 40.537C546.343 39.9943 546.193 39.3967 546.193 38.744C546.193 38.172 546.288 37.6587 546.479 37.204C546.669 36.742 546.963 36.346 547.359 36.016C547.755 35.6787 548.268 35.4037 548.899 35.191C549.375 35.037 549.933 34.8977 550.571 34.773C551.216 34.6483 551.913 34.5347 552.661 34.432C553.416 34.322 554.204 34.2047 555.026 34.08L554.08 34.619C554.087 33.7977 553.904 33.1927 553.53 32.804C553.156 32.4153 552.525 32.221 551.638 32.221C551.102 32.221 550.585 32.3457 550.087 32.595C549.588 32.8443 549.24 33.2733 549.042 33.882L546.622 33.123C546.915 32.1183 547.472 31.3117 548.294 30.703C549.122 30.0943 550.237 29.79 551.638 29.79C552.694 29.79 553.621 29.9623 554.421 30.307C555.227 30.6517 555.825 31.2163 556.214 32.001C556.426 32.419 556.555 32.848 556.599 33.288C556.643 33.7207 556.665 34.1937 556.665 34.707V42H554.344V39.426L554.729 39.844C554.193 40.702 553.566 41.3327 552.848 41.736C552.136 42.132 551.245 42.33 550.175 42.33ZM550.703 40.218C551.304 40.218 551.817 40.1117 552.243 39.899C552.668 39.6863 553.005 39.426 553.255 39.118C553.511 38.81 553.684 38.5203 553.772 38.249C553.911 37.9117 553.988 37.5267 554.003 37.094C554.025 36.654 554.036 36.2983 554.036 36.027L554.85 36.269C554.05 36.3937 553.365 36.5037 552.793 36.599C552.221 36.6943 551.729 36.786 551.319 36.874C550.908 36.9547 550.545 37.0463 550.23 37.149C549.922 37.259 549.661 37.3873 549.449 37.534C549.236 37.6807 549.071 37.8493 548.954 38.04C548.844 38.2307 548.789 38.4543 548.789 38.711C548.789 39.0043 548.862 39.2647 549.009 39.492C549.155 39.712 549.368 39.888 549.647 40.02C549.933 40.152 550.285 40.218 550.703 40.218ZM559.506 42V30.12H569.824V42H567.173V32.606H562.157V42H559.506Z" fill="white"/>
</svg>
