<svg width="464" height="40" viewBox="0 0 464 40" fill="none" xmlns="http://www.w3.org/2000/svg">
<rect width="464" height="40" rx="12" fill="#1F94E0"/>
<g clip-path="url(#clip0_10_1763)">
<path d="M203.155 25.5V15.42H207.152C207.833 15.42 208.391 15.5577 208.825 15.833C209.263 16.1037 209.588 16.4513 209.798 16.876C210.012 17.3007 210.12 17.7393 210.12 18.192C210.12 18.7473 209.987 19.2187 209.721 19.606C209.459 19.9933 209.102 20.2547 208.65 20.39V20.04C209.284 20.1847 209.765 20.4857 210.092 20.943C210.423 21.4003 210.589 21.9207 210.589 22.504C210.589 23.1013 210.474 23.624 210.246 24.072C210.017 24.52 209.676 24.87 209.224 25.122C208.776 25.374 208.22 25.5 207.558 25.5H203.155ZM204.863 23.911H207.348C207.642 23.911 207.905 23.8527 208.139 23.736C208.372 23.6147 208.554 23.4467 208.685 23.232C208.82 23.0127 208.888 22.7537 208.888 22.455C208.888 22.1843 208.829 21.9417 208.713 21.727C208.596 21.5123 208.426 21.342 208.202 21.216C207.978 21.0853 207.709 21.02 207.397 21.02H204.863V23.911ZM204.863 19.445H207.131C207.373 19.445 207.59 19.3983 207.782 19.305C207.973 19.2117 208.125 19.074 208.237 18.892C208.349 18.71 208.405 18.486 208.405 18.22C208.405 17.87 208.293 17.5783 208.069 17.345C207.845 17.1117 207.532 16.995 207.131 16.995H204.863V19.445ZM211.98 25.5L211.973 17.94H213.66V20.46H214.507C214.717 20.46 214.953 20.4647 215.214 20.474C215.48 20.4833 215.702 20.5043 215.879 20.537C216.304 20.6303 216.665 20.7797 216.964 20.985C217.267 21.1903 217.498 21.4587 217.657 21.79C217.816 22.1213 217.895 22.5203 217.895 22.987C217.895 23.6543 217.722 24.1887 217.377 24.59C217.032 24.9867 216.549 25.2573 215.928 25.402C215.746 25.444 215.52 25.472 215.249 25.486C214.978 25.4953 214.738 25.5 214.528 25.5H211.98ZM213.66 24.177H214.675C214.778 24.177 214.892 24.1723 215.018 24.163C215.144 24.1537 215.263 24.1327 215.375 24.1C215.585 24.044 215.772 23.918 215.935 23.722C216.098 23.5213 216.18 23.2763 216.18 22.987C216.18 22.6837 216.098 22.434 215.935 22.238C215.772 22.042 215.571 21.9137 215.333 21.853C215.221 21.825 215.107 21.8063 214.99 21.797C214.878 21.7877 214.773 21.783 214.675 21.783H213.66V24.177ZM218.686 25.5V17.94H220.373V25.5H218.686ZM225.479 25.724C224.761 25.7147 224.149 25.5537 223.645 25.241C223.141 24.9283 222.747 24.4873 222.462 23.918C222.178 23.3487 222.005 22.6767 221.944 21.902C221.916 21.5053 221.914 21.062 221.937 20.572C221.961 20.082 222.012 19.6037 222.091 19.137C222.171 18.6703 222.28 18.2737 222.42 17.947C222.565 17.6203 222.754 17.3193 222.987 17.044C223.221 16.764 223.473 16.5307 223.743 16.344C224.051 16.1293 224.385 15.9637 224.744 15.847C225.108 15.7303 225.489 15.6417 225.885 15.581C226.282 15.5157 226.69 15.4573 227.11 15.406C227.53 15.3547 227.946 15.2893 228.356 15.21L228.51 16.701C228.249 16.7663 227.946 16.8177 227.6 16.855C227.26 16.8877 226.905 16.925 226.536 16.967C226.172 17.009 225.825 17.0697 225.493 17.149C225.162 17.2283 224.875 17.345 224.632 17.499C224.296 17.7043 224.04 17.9983 223.862 18.381C223.685 18.7637 223.58 19.1673 223.547 19.592C223.837 19.1627 224.196 18.8617 224.625 18.689C225.059 18.5117 225.498 18.423 225.941 18.423C226.613 18.423 227.19 18.5817 227.67 18.899C228.156 19.2163 228.527 19.648 228.783 20.194C229.045 20.7353 229.175 21.3397 229.175 22.007C229.175 22.7537 229.019 23.407 228.706 23.967C228.394 24.527 227.96 24.961 227.404 25.269C226.849 25.577 226.207 25.7287 225.479 25.724ZM225.563 24.142C226.17 24.142 226.627 23.9553 226.935 23.582C227.248 23.204 227.404 22.7023 227.404 22.077C227.404 21.4377 227.243 20.9337 226.921 20.565C226.604 20.1963 226.151 20.012 225.563 20.012C224.966 20.012 224.511 20.1963 224.198 20.565C223.886 20.9337 223.729 21.4377 223.729 22.077C223.729 22.7303 223.888 23.239 224.205 23.603C224.523 23.9623 224.975 24.142 225.563 24.142ZM234.35 25.71C233.613 25.71 232.995 25.535 232.495 25.185C231.996 24.835 231.62 24.359 231.368 23.757C231.116 23.1503 230.99 22.4713 230.99 21.72C230.99 20.9593 231.116 20.278 231.368 19.676C231.62 19.074 231.989 18.6003 232.474 18.255C232.964 17.905 233.569 17.73 234.287 17.73C235.001 17.73 235.62 17.905 236.142 18.255C236.67 18.6003 237.078 19.074 237.367 19.676C237.657 20.2733 237.801 20.9547 237.801 21.72C237.801 22.476 237.659 23.155 237.374 23.757C237.09 24.359 236.688 24.835 236.17 25.185C235.652 25.535 235.046 25.71 234.35 25.71ZM230.703 28.86V17.94H232.194V23.246H232.404V28.86H230.703ZM234.091 24.198C234.53 24.198 234.892 24.0883 235.176 23.869C235.461 23.6497 235.671 23.3533 235.806 22.98C235.946 22.602 236.016 22.182 236.016 21.72C236.016 21.2627 235.946 20.8473 235.806 20.474C235.666 20.096 235.449 19.7973 235.155 19.578C234.861 19.354 234.488 19.242 234.035 19.242C233.606 19.242 233.256 19.347 232.985 19.557C232.715 19.7623 232.514 20.0517 232.383 20.425C232.257 20.7937 232.194 21.2253 232.194 21.72C232.194 22.21 232.257 22.6417 232.383 23.015C232.514 23.3883 232.717 23.68 232.992 23.89C233.272 24.0953 233.639 24.198 234.091 24.198ZM241.458 25.71C240.912 25.71 240.45 25.6073 240.072 25.402C239.694 25.192 239.407 24.9143 239.211 24.569C239.02 24.2237 238.924 23.8433 238.924 23.428C238.924 23.064 238.985 22.7373 239.106 22.448C239.228 22.154 239.414 21.902 239.666 21.692C239.918 21.4773 240.245 21.3023 240.646 21.167C240.95 21.069 241.304 20.9803 241.71 20.901C242.121 20.8217 242.564 20.7493 243.04 20.684C243.521 20.614 244.023 20.5393 244.545 20.46L243.943 20.803C243.948 20.2803 243.831 19.8953 243.593 19.648C243.355 19.4007 242.954 19.277 242.389 19.277C242.049 19.277 241.72 19.3563 241.402 19.515C241.085 19.6737 240.863 19.9467 240.737 20.334L239.197 19.851C239.384 19.2117 239.739 18.6983 240.261 18.311C240.789 17.9237 241.498 17.73 242.389 17.73C243.061 17.73 243.652 17.8397 244.16 18.059C244.674 18.2783 245.054 18.6377 245.301 19.137C245.437 19.403 245.518 19.676 245.546 19.956C245.574 20.2313 245.588 20.5323 245.588 20.859V25.5H244.111V23.862L244.356 24.128C244.016 24.674 243.617 25.0753 243.159 25.332C242.707 25.584 242.14 25.71 241.458 25.71ZM241.794 24.366C242.177 24.366 242.504 24.2983 242.774 24.163C243.045 24.0277 243.26 23.862 243.418 23.666C243.582 23.47 243.691 23.2857 243.747 23.113C243.836 22.8983 243.885 22.6533 243.894 22.378C243.908 22.098 243.915 21.8717 243.915 21.699L244.433 21.853C243.925 21.9323 243.488 22.0023 243.124 22.063C242.76 22.1237 242.448 22.182 242.186 22.238C241.925 22.2893 241.694 22.3477 241.493 22.413C241.297 22.483 241.132 22.5647 240.996 22.658C240.861 22.7513 240.756 22.8587 240.681 22.98C240.611 23.1013 240.576 23.2437 240.576 23.407C240.576 23.5937 240.623 23.7593 240.716 23.904C240.81 24.044 240.945 24.156 241.122 24.24C241.304 24.324 241.528 24.366 241.794 24.366ZM249.308 25.5V19.438H246.781V17.94H253.522V19.438H250.995V25.5H249.308ZM254.841 25.5L254.834 17.94H256.521V20.46H257.879C258.089 20.46 258.325 20.4647 258.586 20.474C258.852 20.4833 259.074 20.5043 259.251 20.537C259.676 20.6303 260.037 20.7797 260.336 20.985C260.639 21.1903 260.87 21.4587 261.029 21.79C261.188 22.1213 261.267 22.5203 261.267 22.987C261.267 23.6543 261.094 24.1887 260.749 24.59C260.408 24.9867 259.928 25.2573 259.307 25.402C259.12 25.444 258.892 25.472 258.621 25.486C258.355 25.4953 258.115 25.5 257.9 25.5H254.841ZM256.521 24.177H258.047C258.15 24.177 258.264 24.1723 258.39 24.163C258.516 24.1537 258.637 24.1327 258.754 24.1C258.964 24.044 259.148 23.918 259.307 23.722C259.47 23.5213 259.552 23.2763 259.552 22.987C259.552 22.6837 259.47 22.434 259.307 22.238C259.144 22.042 258.943 21.9137 258.705 21.853C258.598 21.825 258.486 21.8063 258.369 21.797C258.252 21.7877 258.145 21.783 258.047 21.783H256.521V24.177Z" fill="white"/>
</g>
<defs>
<clipPath id="clip0_10_1763">
<rect width="60" height="21" fill="white" transform="translate(202 9.5)"/>
</clipPath>
</defs>
</svg>
