<svg width="302" height="24" viewBox="0 0 302 24" fill="none" xmlns="http://www.w3.org/2000/svg">
<path d="M6.948 7.68C6.34 7.68 5.79067 7.78667 5.3 8C4.80933 8.20267 4.39333 8.50667 4.052 8.912C3.71067 9.30667 3.44933 9.792 3.268 10.368C3.08667 10.9333 2.996 11.5733 2.996 12.288C2.996 13.2267 3.14 14.0427 3.428 14.736C3.72667 15.4293 4.164 15.9627 4.74 16.336C5.32667 16.7093 6.05733 16.896 6.932 16.896C7.43333 16.896 7.908 16.8533 8.356 16.768C8.804 16.6827 9.24133 16.576 9.668 16.448V17.696C9.24133 17.856 8.79867 17.9733 8.34 18.048C7.892 18.1227 7.35333 18.16 6.724 18.16C5.56133 18.16 4.59067 17.92 3.812 17.44C3.03333 16.96 2.44667 16.2773 2.052 15.392C1.668 14.5067 1.476 13.4667 1.476 12.272C1.476 11.408 1.59333 10.6187 1.828 9.904C2.07333 9.18933 2.42533 8.57067 2.884 8.048C3.35333 7.52533 3.92933 7.12533 4.612 6.848C5.29467 6.56 6.07867 6.416 6.964 6.416C7.55067 6.416 8.116 6.47467 8.66 6.592C9.204 6.70933 9.68933 6.87467 10.116 7.088L9.54 8.304C9.188 8.144 8.79333 8 8.356 7.872C7.92933 7.744 7.46 7.68 6.948 7.68ZM10.6254 9.424H12.1294L13.9854 14.304C14.092 14.592 14.188 14.8693 14.2734 15.136C14.3694 15.4027 14.4547 15.664 14.5294 15.92C14.604 16.1653 14.6627 16.4053 14.7054 16.64H14.7694C14.8334 16.3733 14.9347 16.0267 15.0734 15.6C15.212 15.1627 15.356 14.7253 15.5054 14.288L17.2494 9.424H18.7694L15.0734 19.184C14.8707 19.7173 14.6307 20.1813 14.3534 20.576C14.0867 20.9813 13.756 21.2907 13.3614 21.504C12.9774 21.728 12.508 21.84 11.9534 21.84C11.6974 21.84 11.4734 21.824 11.2814 21.792C11.0894 21.7707 10.924 21.744 10.7854 21.712V20.592C10.9027 20.6133 11.0414 20.6347 11.2014 20.656C11.372 20.6773 11.548 20.688 11.7294 20.688C12.06 20.688 12.3427 20.624 12.5774 20.496C12.8227 20.3787 13.0307 20.2027 13.2014 19.968C13.372 19.744 13.516 19.4773 13.6334 19.168L14.0814 18.032L10.6254 9.424ZM27.3736 9.424V18H25.9656V10.624H21.5336V18H20.1256V9.424H27.3736ZM33.422 9.264C34.158 9.264 34.7873 9.424 35.31 9.744C35.8433 10.064 36.2487 10.5173 36.526 11.104C36.814 11.68 36.958 12.3573 36.958 13.136V13.984H31.086C31.1073 14.9547 31.3527 15.696 31.822 16.208C32.302 16.7093 32.9687 16.96 33.822 16.96C34.366 16.96 34.846 16.912 35.262 16.816C35.6887 16.7093 36.126 16.56 36.574 16.368V17.6C36.1367 17.792 35.7047 17.9307 35.278 18.016C34.8513 18.112 34.3447 18.16 33.758 18.16C32.9473 18.16 32.2273 17.9947 31.598 17.664C30.9793 17.3333 30.494 16.8427 30.142 16.192C29.8007 15.5307 29.63 14.7253 29.63 13.776C29.63 12.8373 29.7847 12.032 30.094 11.36C30.414 10.688 30.8567 10.1707 31.422 9.808C31.998 9.44533 32.6647 9.264 33.422 9.264ZM33.406 10.416C32.734 10.416 32.2007 10.6347 31.806 11.072C31.422 11.4987 31.1927 12.096 31.118 12.864H35.486C35.486 12.3733 35.4113 11.9467 35.262 11.584C35.1127 11.2213 34.8833 10.9387 34.574 10.736C34.2753 10.5227 33.886 10.416 33.406 10.416ZM43.2213 9.264C44.2773 9.264 45.1253 9.632 45.7653 10.368C46.4159 11.104 46.7413 12.2133 46.7413 13.696C46.7413 14.6667 46.5919 15.488 46.2933 16.16C46.0052 16.8213 45.5946 17.3227 45.0613 17.664C44.5386 17.9947 43.9199 18.16 43.2053 18.16C42.7679 18.16 42.3786 18.1013 42.0373 17.984C41.6959 17.8667 41.4026 17.7173 41.1573 17.536C40.9226 17.344 40.7199 17.136 40.5493 16.912H40.4533C40.4746 17.0933 40.4959 17.3227 40.5173 17.6C40.5386 17.8773 40.5493 18.1173 40.5493 18.32V21.84H39.1413V9.424H40.2933L40.4853 10.592H40.5493C40.7199 10.3467 40.9226 10.1227 41.1573 9.92C41.4026 9.71733 41.6906 9.55733 42.0213 9.44C42.3626 9.32267 42.7626 9.264 43.2213 9.264ZM42.9653 10.448C42.3893 10.448 41.9253 10.56 41.5733 10.784C41.2213 10.9973 40.9653 11.3227 40.8053 11.76C40.6453 12.1973 40.5599 12.752 40.5493 13.424V13.696C40.5493 14.4 40.6239 14.9973 40.7733 15.488C40.9226 15.9787 41.1733 16.352 41.5253 16.608C41.8879 16.864 42.3786 16.992 42.9973 16.992C43.5199 16.992 43.9466 16.848 44.2773 16.56C44.6186 16.272 44.8693 15.8827 45.0293 15.392C45.1999 14.8907 45.2853 14.32 45.2853 13.68C45.2853 12.6987 45.0933 11.9147 44.7093 11.328C44.3359 10.7413 43.7546 10.448 42.9653 10.448ZM54.217 9.424V10.608H50.393V18H48.985V9.424H54.217ZM59.0626 9.264C59.7986 9.264 60.428 9.424 60.9506 9.744C61.484 10.064 61.8893 10.5173 62.1666 11.104C62.4546 11.68 62.5986 12.3573 62.5986 13.136V13.984H56.7266C56.748 14.9547 56.9933 15.696 57.4626 16.208C57.9426 16.7093 58.6093 16.96 59.4626 16.96C60.0066 16.96 60.4866 16.912 60.9026 16.816C61.3293 16.7093 61.7666 16.56 62.2146 16.368V17.6C61.7773 17.792 61.3453 17.9307 60.9186 18.016C60.492 18.112 59.9853 18.16 59.3986 18.16C58.588 18.16 57.868 17.9947 57.2386 17.664C56.62 17.3333 56.1346 16.8427 55.7826 16.192C55.4413 15.5307 55.2706 14.7253 55.2706 13.776C55.2706 12.8373 55.4253 12.032 55.7346 11.36C56.0546 10.688 56.4973 10.1707 57.0626 9.808C57.6386 9.44533 58.3053 9.264 59.0626 9.264ZM59.0466 10.416C58.3746 10.416 57.8413 10.6347 57.4466 11.072C57.0626 11.4987 56.8333 12.096 56.7586 12.864H61.1266C61.1266 12.3733 61.052 11.9467 60.9026 11.584C60.7533 11.2213 60.524 10.9387 60.2146 10.736C59.916 10.5227 59.5266 10.416 59.0466 10.416ZM68.8619 9.264C69.9179 9.264 70.7659 9.632 71.4059 10.368C72.0565 11.104 72.3819 12.2133 72.3819 13.696C72.3819 14.6667 72.2325 15.488 71.9339 16.16C71.6459 16.8213 71.2352 17.3227 70.7019 17.664C70.1792 17.9947 69.5605 18.16 68.8459 18.16C68.4085 18.16 68.0192 18.1013 67.6779 17.984C67.3365 17.8667 67.0432 17.7173 66.7979 17.536C66.5632 17.344 66.3605 17.136 66.1899 16.912H66.0939C66.1152 17.0933 66.1365 17.3227 66.1579 17.6C66.1792 17.8773 66.1899 18.1173 66.1899 18.32V21.84H64.7819V9.424H65.9339L66.1259 10.592H66.1899C66.3605 10.3467 66.5632 10.1227 66.7979 9.92C67.0432 9.71733 67.3312 9.55733 67.6619 9.44C68.0032 9.32267 68.4032 9.264 68.8619 9.264ZM68.6059 10.448C68.0299 10.448 67.5659 10.56 67.2139 10.784C66.8619 10.9973 66.6059 11.3227 66.4459 11.76C66.2859 12.1973 66.2005 12.752 66.1899 13.424V13.696C66.1899 14.4 66.2645 14.9973 66.4139 15.488C66.5632 15.9787 66.8139 16.352 67.1659 16.608C67.5285 16.864 68.0192 16.992 68.6379 16.992C69.1605 16.992 69.5872 16.848 69.9179 16.56C70.2592 16.272 70.5099 15.8827 70.6699 15.392C70.8405 14.8907 70.9259 14.32 70.9259 13.68C70.9259 12.6987 70.7339 11.9147 70.3499 11.328C69.9765 10.7413 69.3952 10.448 68.6059 10.448ZM82.0816 13.696C82.0816 14.4107 81.9856 15.0453 81.7936 15.6C81.6123 16.144 81.3456 16.608 80.9936 16.992C80.6523 17.376 80.231 17.6693 79.7296 17.872C79.239 18.064 78.6896 18.16 78.0816 18.16C77.5163 18.16 76.9936 18.064 76.5136 17.872C76.0336 17.6693 75.6176 17.376 75.2656 16.992C74.9136 16.608 74.6363 16.144 74.4336 15.6C74.2416 15.0453 74.1456 14.4107 74.1456 13.696C74.1456 12.7467 74.3056 11.9467 74.6256 11.296C74.9456 10.6347 75.4043 10.1333 76.0016 9.792C76.599 9.44 77.3083 9.264 78.1296 9.264C78.9083 9.264 79.591 9.44 80.1776 9.792C80.775 10.1333 81.239 10.6347 81.5696 11.296C81.911 11.9467 82.0816 12.7467 82.0816 13.696ZM75.6016 13.696C75.6016 14.368 75.687 14.9547 75.8576 15.456C76.039 15.9467 76.3163 16.3253 76.6896 16.592C77.063 16.8587 77.5376 16.992 78.1136 16.992C78.6896 16.992 79.1643 16.8587 79.5376 16.592C79.911 16.3253 80.183 15.9467 80.3536 15.456C80.535 14.9547 80.6256 14.368 80.6256 13.696C80.6256 13.0133 80.535 12.432 80.3536 11.952C80.1723 11.472 79.895 11.104 79.5216 10.848C79.159 10.5813 78.6843 10.448 78.0976 10.448C77.223 10.448 76.5883 10.736 76.1936 11.312C75.799 11.888 75.6016 12.6827 75.6016 13.696ZM91.2571 5.872C91.2145 6.40533 91.0811 6.85333 90.8571 7.216C90.6438 7.57867 90.3238 7.85067 89.8971 8.032C89.4705 8.21333 88.9158 8.304 88.2331 8.304C87.5398 8.304 86.9798 8.21333 86.5531 8.032C86.1371 7.85067 85.8331 7.584 85.6411 7.232C85.4491 6.86933 85.3318 6.416 85.2891 5.872H86.6011C86.6545 6.448 86.8038 6.83733 87.0491 7.04C87.3051 7.232 87.7105 7.328 88.2651 7.328C88.7558 7.328 89.1398 7.22667 89.4171 7.024C89.7051 6.81067 89.8758 6.42667 89.9291 5.872H91.2571ZM85.6411 14.656C85.6411 14.752 85.6358 14.8907 85.6251 15.072C85.6251 15.2427 85.6198 15.4293 85.6091 15.632C85.5985 15.824 85.5878 16.0107 85.5771 16.192C85.5665 16.3627 85.5558 16.5013 85.5451 16.608L90.1371 9.424H91.8651V18H90.5531V12.944C90.5531 12.7733 90.5531 12.5493 90.5531 12.272C90.5638 11.9947 90.5745 11.7227 90.5851 11.456C90.5958 11.1787 90.6065 10.9707 90.6171 10.832L86.0571 18H84.3131V9.424H85.6411V14.656Z" fill="white"/>
</svg>
