<svg width="464" height="40" viewBox="0 0 464 40" fill="none" xmlns="http://www.w3.org/2000/svg">
<rect width="464" height="40" rx="12" fill="#263845"/>
<g clip-path="url(#clip0_10_1929)">
<path d="M211.782 25.5V15.42H213.469V19.662H218.243V15.42H219.923V25.5H218.243V21.244H213.469V25.5H211.782ZM223.999 25.71C223.453 25.71 222.991 25.6073 222.613 25.402C222.235 25.192 221.948 24.9143 221.752 24.569C221.561 24.2237 221.465 23.8433 221.465 23.428C221.465 23.064 221.526 22.7373 221.647 22.448C221.769 22.154 221.955 21.902 222.207 21.692C222.459 21.4773 222.786 21.3023 223.187 21.167C223.491 21.069 223.845 20.9803 224.251 20.901C224.662 20.8217 225.105 20.7493 225.581 20.684C226.062 20.614 226.564 20.5393 227.086 20.46L226.484 20.803C226.489 20.2803 226.372 19.8953 226.134 19.648C225.896 19.4007 225.495 19.277 224.93 19.277C224.59 19.277 224.261 19.3563 223.943 19.515C223.626 19.6737 223.404 19.9467 223.278 20.334L221.738 19.851C221.925 19.2117 222.28 18.6983 222.802 18.311C223.33 17.9237 224.039 17.73 224.93 17.73C225.602 17.73 226.193 17.8397 226.701 18.059C227.215 18.2783 227.595 18.6377 227.842 19.137C227.978 19.403 228.059 19.676 228.087 19.956C228.115 20.2313 228.129 20.5323 228.129 20.859V25.5H226.652V23.862L226.897 24.128C226.557 24.674 226.158 25.0753 225.7 25.332C225.248 25.584 224.681 25.71 223.999 25.71ZM224.335 24.366C224.718 24.366 225.045 24.2983 225.315 24.163C225.586 24.0277 225.801 23.862 225.959 23.666C226.123 23.47 226.232 23.2857 226.288 23.113C226.377 22.8983 226.426 22.6533 226.435 22.378C226.449 22.098 226.456 21.8717 226.456 21.699L226.974 21.853C226.466 21.9323 226.029 22.0023 225.665 22.063C225.301 22.1237 224.989 22.182 224.727 22.238C224.466 22.2893 224.235 22.3477 224.034 22.413C223.838 22.483 223.673 22.5647 223.537 22.658C223.402 22.7513 223.297 22.8587 223.222 22.98C223.152 23.1013 223.117 23.2437 223.117 23.407C223.117 23.5937 223.164 23.7593 223.257 23.904C223.351 24.044 223.486 24.156 223.663 24.24C223.845 24.324 224.069 24.366 224.335 24.366ZM232.64 25.71C231.921 25.71 231.265 25.5583 230.673 25.255C230.08 24.9517 229.613 24.5363 229.273 24.009L230.603 23.12C230.873 23.442 231.174 23.6917 231.506 23.869C231.837 24.0417 232.206 24.128 232.612 24.128C233.036 24.128 233.37 24.0347 233.613 23.848C233.855 23.6613 233.977 23.4117 233.977 23.099C233.977 22.8237 233.895 22.63 233.732 22.518C233.568 22.4013 233.354 22.3313 233.088 22.308C232.822 22.2847 232.537 22.273 232.234 22.273H231.674V20.936H232.227C232.651 20.936 233.006 20.887 233.291 20.789C233.58 20.691 233.725 20.474 233.725 20.138C233.725 19.8347 233.613 19.62 233.389 19.494C233.165 19.3633 232.903 19.298 232.605 19.298C232.241 19.298 231.881 19.375 231.527 19.529C231.172 19.683 230.855 19.8697 230.575 20.089L229.623 18.941C230.043 18.5677 230.512 18.2737 231.03 18.059C231.548 17.8397 232.101 17.73 232.689 17.73C233.174 17.73 233.627 17.814 234.047 17.982C234.471 18.15 234.812 18.402 235.069 18.738C235.33 19.074 235.461 19.4893 235.461 19.984C235.461 20.3387 235.384 20.6723 235.23 20.985C235.08 21.2977 234.84 21.594 234.509 21.874L234.488 21.328C234.744 21.4353 234.961 21.5847 235.139 21.776C235.321 21.9673 235.458 22.1913 235.552 22.448C235.65 22.7047 235.699 22.9777 235.699 23.267C235.699 23.7943 235.559 24.24 235.279 24.604C234.999 24.968 234.625 25.2433 234.159 25.43C233.697 25.6167 233.19 25.71 232.64 25.71ZM239.353 25.71C238.807 25.71 238.345 25.6073 237.967 25.402C237.589 25.192 237.302 24.9143 237.106 24.569C236.914 24.2237 236.819 23.8433 236.819 23.428C236.819 23.064 236.879 22.7373 237.001 22.448C237.122 22.154 237.309 21.902 237.561 21.692C237.813 21.4773 238.139 21.3023 238.541 21.167C238.844 21.069 239.199 20.9803 239.605 20.901C240.015 20.8217 240.459 20.7493 240.935 20.684C241.415 20.614 241.917 20.5393 242.44 20.46L241.838 20.803C241.842 20.2803 241.726 19.8953 241.488 19.648C241.25 19.4007 240.848 19.277 240.284 19.277C239.943 19.277 239.614 19.3563 239.297 19.515C238.979 19.6737 238.758 19.9467 238.632 20.334L237.092 19.851C237.278 19.2117 237.633 18.6983 238.156 18.311C238.683 17.9237 239.392 17.73 240.284 17.73C240.956 17.73 241.546 17.8397 242.055 18.059C242.568 18.2783 242.948 18.6377 243.196 19.137C243.331 19.403 243.413 19.676 243.441 19.956C243.469 20.2313 243.483 20.5323 243.483 20.859V25.5H242.006V23.862L242.251 24.128C241.91 24.674 241.511 25.0753 241.054 25.332C240.601 25.584 240.034 25.71 239.353 25.71ZM239.689 24.366C240.071 24.366 240.398 24.2983 240.669 24.163C240.939 24.0277 241.154 23.862 241.313 23.666C241.476 23.47 241.586 23.2857 241.642 23.113C241.73 22.8983 241.779 22.6533 241.789 22.378C241.803 22.098 241.81 21.8717 241.81 21.699L242.328 21.853C241.819 21.9323 241.383 22.0023 241.019 22.063C240.655 22.1237 240.342 22.182 240.081 22.238C239.819 22.2893 239.588 22.3477 239.388 22.413C239.192 22.483 239.026 22.5647 238.891 22.658C238.755 22.7513 238.65 22.8587 238.576 22.98C238.506 23.1013 238.471 23.2437 238.471 23.407C238.471 23.5937 238.517 23.7593 238.611 23.904C238.704 24.044 238.839 24.156 239.017 24.24C239.199 24.324 239.423 24.366 239.689 24.366ZM244.745 27.18V24.177C245.156 24.177 245.448 24.037 245.62 23.757C245.793 23.477 245.931 22.9917 246.033 22.301C246.099 21.8903 246.152 21.4563 246.194 20.999C246.236 20.5417 246.271 20.0587 246.299 19.55C246.332 19.0413 246.36 18.5047 246.383 17.94H252.011V24.177H252.774V27.18H251.178V25.5H246.334V27.18H244.745ZM247.006 24.177H250.331V19.263H247.86C247.846 19.543 247.83 19.83 247.811 20.124C247.793 20.4133 247.772 20.7027 247.748 20.992C247.725 21.2813 247.699 21.559 247.671 21.825C247.648 22.0863 247.62 22.329 247.587 22.553C247.536 22.945 247.473 23.267 247.398 23.519C247.324 23.771 247.193 23.9903 247.006 24.177Z" fill="white"/>
</g>
<defs>
<clipPath id="clip0_10_1929">
<rect width="43" height="21" fill="white" transform="translate(210.5 9.5)"/>
</clipPath>
</defs>
</svg>
