<svg width="302" height="45" viewBox="0 0 302 45" fill="none" xmlns="http://www.w3.org/2000/svg">
<path d="M5.076 6.576C6.56933 6.576 7.65733 6.86933 8.34 7.456C9.02267 8.04267 9.364 8.86933 9.364 9.936C9.364 10.4053 9.284 10.8587 9.124 11.296C8.97467 11.7227 8.724 12.1067 8.372 12.448C8.02 12.7893 7.55067 13.0613 6.964 13.264C6.37733 13.456 5.65733 13.552 4.804 13.552H3.492V18H2.052V6.576H5.076ZM4.948 7.808H3.492V12.32H4.644C5.36933 12.32 5.972 12.2453 6.452 12.096C6.932 11.936 7.28933 11.6853 7.524 11.344C7.75867 11.0027 7.876 10.5547 7.876 10C7.876 9.264 7.64133 8.71467 7.172 8.352C6.70267 7.98933 5.96133 7.808 4.948 7.808ZM19.0035 13.696C19.0035 14.4107 18.9075 15.0453 18.7155 15.6C18.5342 16.144 18.2675 16.608 17.9155 16.992C17.5742 17.376 17.1528 17.6693 16.6515 17.872C16.1608 18.064 15.6115 18.16 15.0035 18.16C14.4382 18.16 13.9155 18.064 13.4355 17.872C12.9555 17.6693 12.5395 17.376 12.1875 16.992C11.8355 16.608 11.5582 16.144 11.3555 15.6C11.1635 15.0453 11.0675 14.4107 11.0675 13.696C11.0675 12.7467 11.2275 11.9467 11.5475 11.296C11.8675 10.6347 12.3262 10.1333 12.9235 9.792C13.5208 9.44 14.2302 9.264 15.0515 9.264C15.8302 9.264 16.5128 9.44 17.0995 9.792C17.6968 10.1333 18.1608 10.6347 18.4915 11.296C18.8328 11.9467 19.0035 12.7467 19.0035 13.696ZM12.5235 13.696C12.5235 14.368 12.6088 14.9547 12.7795 15.456C12.9608 15.9467 13.2382 16.3253 13.6115 16.592C13.9848 16.8587 14.4595 16.992 15.0355 16.992C15.6115 16.992 16.0862 16.8587 16.4595 16.592C16.8328 16.3253 17.1048 15.9467 17.2755 15.456C17.4568 14.9547 17.5475 14.368 17.5475 13.696C17.5475 13.0133 17.4568 12.432 17.2755 11.952C17.0942 11.472 16.8168 11.104 16.4435 10.848C16.0808 10.5813 15.6062 10.448 15.0195 10.448C14.1448 10.448 13.5102 10.736 13.1155 11.312C12.7208 11.888 12.5235 12.6827 12.5235 13.696ZM20.787 12.848C20.787 11.6 20.9097 10.5387 21.155 9.664C21.411 8.77867 21.8003 8.07467 22.323 7.552C22.8563 7.01867 23.539 6.66133 24.371 6.48C25.0643 6.33067 25.7417 6.19733 26.403 6.08C27.0643 5.96267 27.683 5.856 28.259 5.76L28.499 6.992C28.2217 7.03467 27.9123 7.088 27.571 7.152C27.2297 7.20533 26.883 7.264 26.531 7.328C26.179 7.38133 25.8377 7.44 25.507 7.504C25.187 7.55733 24.9043 7.61067 24.659 7.664C24.307 7.73867 23.9923 7.86667 23.715 8.048C23.4377 8.21867 23.1977 8.45333 22.995 8.752C22.803 9.05067 22.6483 9.41867 22.531 9.856C22.4137 10.2933 22.3443 10.8107 22.323 11.408H22.419C22.5683 11.2053 22.771 10.9973 23.027 10.784C23.2937 10.5707 23.6083 10.3893 23.971 10.24C24.3443 10.0907 24.7657 10.016 25.235 10.016C25.9817 10.016 26.6003 10.1813 27.091 10.512C27.5923 10.832 27.9657 11.28 28.211 11.856C28.467 12.432 28.595 13.104 28.595 13.872C28.595 14.8213 28.4297 15.616 28.099 16.256C27.7683 16.896 27.3097 17.376 26.723 17.696C26.1363 18.0053 25.4537 18.16 24.675 18.16C24.0883 18.16 23.555 18.048 23.075 17.824C22.595 17.5893 22.1843 17.248 21.843 16.8C21.5017 16.352 21.2403 15.7973 21.059 15.136C20.8777 14.4747 20.787 13.712 20.787 12.848ZM24.787 16.992C25.2563 16.992 25.6617 16.896 26.003 16.704C26.355 16.512 26.627 16.1973 26.819 15.76C27.011 15.3227 27.107 14.7413 27.107 14.016C27.107 13.1413 26.9417 12.4533 26.611 11.952C26.291 11.44 25.7577 11.184 25.011 11.184C24.5417 11.184 24.115 11.2907 23.731 11.504C23.347 11.7067 23.027 11.9413 22.771 12.208C22.515 12.4747 22.3337 12.6987 22.227 12.88C22.227 13.4027 22.2643 13.9093 22.339 14.4C22.4137 14.8907 22.5417 15.3333 22.723 15.728C22.915 16.112 23.1763 16.4213 23.507 16.656C23.8483 16.88 24.275 16.992 24.787 16.992ZM38.2691 13.696C38.2691 14.4107 38.1731 15.0453 37.9811 15.6C37.7998 16.144 37.5331 16.608 37.1811 16.992C36.8398 17.376 36.4185 17.6693 35.9171 17.872C35.4265 18.064 34.8771 18.16 34.2691 18.16C33.7038 18.16 33.1811 18.064 32.7011 17.872C32.2211 17.6693 31.8051 17.376 31.4531 16.992C31.1011 16.608 30.8238 16.144 30.6211 15.6C30.4291 15.0453 30.3331 14.4107 30.3331 13.696C30.3331 12.7467 30.4931 11.9467 30.8131 11.296C31.1331 10.6347 31.5918 10.1333 32.1891 9.792C32.7865 9.44 33.4958 9.264 34.3171 9.264C35.0958 9.264 35.7785 9.44 36.3651 9.792C36.9625 10.1333 37.4265 10.6347 37.7571 11.296C38.0985 11.9467 38.2691 12.7467 38.2691 13.696ZM31.7891 13.696C31.7891 14.368 31.8745 14.9547 32.0451 15.456C32.2265 15.9467 32.5038 16.3253 32.8771 16.592C33.2505 16.8587 33.7251 16.992 34.3011 16.992C34.8771 16.992 35.3518 16.8587 35.7251 16.592C36.0985 16.3253 36.3705 15.9467 36.5411 15.456C36.7225 14.9547 36.8131 14.368 36.8131 13.696C36.8131 13.0133 36.7225 12.432 36.5411 11.952C36.3598 11.472 36.0825 11.104 35.7091 10.848C35.3465 10.5813 34.8718 10.448 34.2851 10.448C33.4105 10.448 32.7758 10.736 32.3811 11.312C31.9865 11.888 31.7891 12.6827 31.7891 13.696ZM46.2644 10.608H43.4644V18H42.0724V10.608H39.3044V9.424H46.2644V10.608ZM59.9839 18H58.3519L55.3279 13.04L52.2559 18H50.7359L54.5279 12.048L50.9759 6.576H52.5759L55.3759 11.056L58.1919 6.576H59.7119L56.1759 12.016L59.9839 18ZM64.1589 18V7.984H63.9029L62.0629 11.76H60.2869L62.7669 6.8H65.8389V18H64.1589ZM71.832 18.224C70.9893 18.224 70.2587 18.0693 69.64 17.76C69.0213 17.4507 68.5413 17.0133 68.2 16.448C67.8693 15.8827 67.704 15.2267 67.704 14.48V14.304H69.416V14.464C69.416 15.1467 69.624 15.696 70.04 16.112C70.4667 16.5173 71.0587 16.72 71.816 16.72C72.5947 16.72 73.1973 16.5067 73.624 16.08C74.0507 15.6533 74.264 15.0773 74.264 14.352V14.208C74.264 13.5147 74.0507 12.96 73.624 12.544C73.208 12.128 72.6747 11.92 72.024 11.92C71.6613 11.92 71.3573 11.9787 71.112 12.096C70.8773 12.2027 70.6853 12.336 70.536 12.496C70.3973 12.656 70.28 12.8107 70.184 12.96H68.056V6.8H75.56V8.32H69.736V11.616H69.992C70.0987 11.4347 70.248 11.264 70.44 11.104C70.6427 10.9333 70.904 10.7947 71.224 10.688C71.544 10.5813 71.928 10.528 72.376 10.528C73.0373 10.528 73.6347 10.672 74.168 10.96C74.712 11.2373 75.144 11.6533 75.464 12.208C75.784 12.752 75.944 13.4133 75.944 14.192V14.368C75.944 15.1467 75.7787 15.824 75.448 16.4C75.1173 16.976 74.6427 17.424 74.024 17.744C73.416 18.064 72.6853 18.224 71.832 18.224ZM81.3781 18.224C80.5461 18.224 79.8315 18.0853 79.2341 17.808C78.6368 17.52 78.1781 17.12 77.8581 16.608C77.5381 16.0853 77.3781 15.4773 77.3781 14.784H79.0901C79.0901 15.3387 79.2715 15.8027 79.6341 16.176C80.0075 16.5387 80.5888 16.72 81.3781 16.72C82.1781 16.72 82.7915 16.5067 83.2181 16.08C83.6448 15.6533 83.8581 15.072 83.8581 14.336V12.992H83.6021C83.4208 13.248 83.1275 13.4933 82.7221 13.728C82.3168 13.9627 81.7301 14.08 80.9621 14.08C80.3115 14.08 79.7088 13.936 79.1541 13.648C78.5995 13.36 78.1515 12.9493 77.8101 12.416C77.4795 11.872 77.3141 11.2267 77.3141 10.48V10.288C77.3141 9.54133 77.4848 8.89067 77.8261 8.336C78.1781 7.78133 78.6635 7.34933 79.2821 7.04C79.9115 6.73067 80.6315 6.576 81.4421 6.576C82.2635 6.576 82.9781 6.736 83.5861 7.056C84.2048 7.36533 84.6848 7.80267 85.0261 8.368C85.3675 8.92267 85.5381 9.57867 85.5381 10.336V14.208C85.5381 15.0827 85.3621 15.8187 85.0101 16.416C84.6688 17.0133 84.1835 17.4667 83.5541 17.776C82.9355 18.0747 82.2101 18.224 81.3781 18.224ZM81.4261 12.72C81.9168 12.72 82.3435 12.624 82.7061 12.432C83.0688 12.24 83.3515 11.9787 83.5541 11.648C83.7568 11.3067 83.8581 10.9067 83.8581 10.448V10.32C83.8581 9.62667 83.6341 9.08267 83.1861 8.688C82.7488 8.28267 82.1621 8.08 81.4261 8.08C80.6901 8.08 80.0981 8.28267 79.6501 8.688C79.2128 9.08267 78.9941 9.62667 78.9941 10.32V10.448C78.9941 10.9067 79.0901 11.3067 79.2821 11.648C79.4848 11.9787 79.7675 12.24 80.1301 12.432C80.5035 12.624 80.9355 12.72 81.4261 12.72Z" fill="white"/>
<path d="M1.858 39V29.004H9.362V39H8.116V30.11H3.118V39H1.858ZM18.4542 35.234C18.4542 35.8593 18.3702 36.4147 18.2022 36.9C18.0436 37.376 17.8102 37.782 17.5022 38.118C17.2036 38.454 16.8349 38.7107 16.3962 38.888C15.9669 39.056 15.4862 39.14 14.9542 39.14C14.4596 39.14 14.0022 39.056 13.5822 38.888C13.1622 38.7107 12.7982 38.454 12.4902 38.118C12.1822 37.782 11.9396 37.376 11.7622 36.9C11.5942 36.4147 11.5102 35.8593 11.5102 35.234C11.5102 34.4033 11.6502 33.7033 11.9302 33.134C12.2102 32.5553 12.6116 32.1167 13.1342 31.818C13.6569 31.51 14.2776 31.356 14.9962 31.356C15.6776 31.356 16.2749 31.51 16.7882 31.818C17.3109 32.1167 17.7169 32.5553 18.0062 33.134C18.3049 33.7033 18.4542 34.4033 18.4542 35.234ZM12.7842 35.234C12.7842 35.822 12.8589 36.3353 13.0082 36.774C13.1669 37.2033 13.4096 37.5347 13.7362 37.768C14.0629 38.0013 14.4782 38.118 14.9822 38.118C15.4862 38.118 15.9016 38.0013 16.2282 37.768C16.5549 37.5347 16.7929 37.2033 16.9422 36.774C17.1009 36.3353 17.1802 35.822 17.1802 35.234C17.1802 34.6367 17.1009 34.128 16.9422 33.708C16.7836 33.288 16.5409 32.966 16.2142 32.742C15.8969 32.5087 15.4816 32.392 14.9682 32.392C14.2029 32.392 13.6476 32.644 13.3022 33.148C12.9569 33.652 12.7842 34.3473 12.7842 35.234ZM23.4168 39.14C22.7541 39.14 22.1615 39.0047 21.6388 38.734C21.1255 38.4633 20.7195 38.0433 20.4208 37.474C20.1315 36.9047 19.9868 36.1767 19.9868 35.29C19.9868 34.366 20.1408 33.6147 20.4488 33.036C20.7568 32.4573 21.1721 32.0327 21.6948 31.762C22.2268 31.4913 22.8288 31.356 23.5008 31.356C23.8835 31.356 24.2521 31.398 24.6068 31.482C24.9615 31.5567 25.2508 31.65 25.4748 31.762L25.0968 32.784C24.8728 32.7 24.6115 32.6207 24.3128 32.546C24.0141 32.4713 23.7341 32.434 23.4728 32.434C22.9688 32.434 22.5535 32.5413 22.2268 32.756C21.9001 32.9707 21.6575 33.288 21.4988 33.708C21.3401 34.128 21.2608 34.6507 21.2608 35.276C21.2608 35.8733 21.3401 36.382 21.4988 36.802C21.6575 37.222 21.8955 37.5393 22.2128 37.754C22.5301 37.9687 22.9268 38.076 23.4028 38.076C23.8135 38.076 24.1728 38.034 24.4808 37.95C24.7981 37.866 25.0875 37.7633 25.3488 37.642V38.734C25.0968 38.8647 24.8168 38.9627 24.5088 39.028C24.2101 39.1027 23.8461 39.14 23.4168 39.14ZM32.8454 39H31.5994V32.518H29.3874C29.294 33.7033 29.1774 34.716 29.0374 35.556C28.8974 36.3867 28.72 37.0633 28.5054 37.586C28.2907 38.1087 28.034 38.4913 27.7354 38.734C27.4367 38.9767 27.0867 39.098 26.6854 39.098C26.564 39.098 26.4427 39.0887 26.3214 39.07C26.2094 39.0607 26.116 39.0373 26.0414 39V38.076C26.0974 38.0947 26.158 38.1087 26.2234 38.118C26.2887 38.1273 26.354 38.132 26.4194 38.132C26.6247 38.132 26.8114 38.048 26.9794 37.88C27.1474 37.712 27.2967 37.4553 27.4274 37.11C27.5674 36.7647 27.6934 36.3307 27.8054 35.808C27.9174 35.276 28.0154 34.6507 28.0994 33.932C28.1834 33.2133 28.258 32.4013 28.3234 31.496H32.8454V39ZM38.1251 31.356C38.7691 31.356 39.3198 31.496 39.7771 31.776C40.2438 32.056 40.5984 32.4527 40.8411 32.966C41.0931 33.47 41.2191 34.0627 41.2191 34.744V35.486H36.0811C36.0998 36.3353 36.3144 36.984 36.7251 37.432C37.1451 37.8707 37.7284 38.09 38.4751 38.09C38.9511 38.09 39.3711 38.048 39.7351 37.964C40.1084 37.8707 40.4911 37.74 40.8831 37.572V38.65C40.5004 38.818 40.1224 38.9393 39.7491 39.014C39.3758 39.098 38.9324 39.14 38.4191 39.14C37.7098 39.14 37.0798 38.9953 36.5291 38.706C35.9878 38.4167 35.5631 37.9873 35.2551 37.418C34.9564 36.8393 34.8071 36.1347 34.8071 35.304C34.8071 34.4827 34.9424 33.778 35.2131 33.19C35.4931 32.602 35.8804 32.1493 36.3751 31.832C36.8791 31.5147 37.4624 31.356 38.1251 31.356ZM38.1111 32.364C37.5231 32.364 37.0564 32.5553 36.7111 32.938C36.3751 33.3113 36.1744 33.834 36.1091 34.506H39.9311C39.9311 34.0767 39.8658 33.7033 39.7351 33.386C39.6044 33.0687 39.4038 32.8213 39.1331 32.644C38.8718 32.4573 38.5311 32.364 38.1111 32.364ZM48.7015 31.496V37.964H49.7935V41.604H48.6035V39H43.3815V41.604H42.2055V37.964H42.8075C43.2368 37.3667 43.5915 36.718 43.8715 36.018C44.1608 35.3087 44.3755 34.5713 44.5155 33.806C44.6648 33.0313 44.7441 32.2613 44.7535 31.496H48.7015ZM45.8455 32.462C45.8081 33.0967 45.7101 33.7547 45.5515 34.436C45.3928 35.108 45.1875 35.752 44.9355 36.368C44.6928 36.984 44.4081 37.516 44.0815 37.964H47.5115V32.462H45.8455ZM52.4962 31.496V34.618H56.5702V31.496H57.8022V39H56.5702V35.654H52.4962V39H51.2642V31.496H52.4962ZM60.6403 39H59.2123L61.3543 35.85C61.0649 35.7753 60.7849 35.6587 60.5143 35.5C60.2436 35.332 60.0243 35.1033 59.8563 34.814C59.6883 34.5153 59.6043 34.1467 59.6043 33.708C59.6043 32.9893 59.8469 32.4433 60.3323 32.07C60.8176 31.6873 61.4616 31.496 62.2643 31.496H65.6243V39H64.3923V36.018H62.5723L60.6403 39ZM60.7943 33.722C60.7943 34.1513 60.9529 34.4733 61.2703 34.688C61.5969 34.8933 62.0496 34.996 62.6283 34.996H64.3923V32.518H62.3903C61.8209 32.518 61.4103 32.63 61.1583 32.854C60.9156 33.078 60.7943 33.3673 60.7943 33.722ZM68.4606 39H67.0326L69.1746 35.85C68.8853 35.7753 68.6053 35.6587 68.3346 35.5C68.0639 35.332 67.8446 35.1033 67.6766 34.814C67.5086 34.5153 67.4246 34.1467 67.4246 33.708C67.4246 32.9893 67.6673 32.4433 68.1526 32.07C68.6379 31.6873 69.2819 31.496 70.0846 31.496H73.4446V39H72.2126V36.018H70.3926L68.4606 39ZM68.6146 33.722C68.6146 34.1513 68.7733 34.4733 69.0906 34.688C69.4173 34.8933 69.8699 34.996 70.4486 34.996H72.2126V32.518H70.2106C69.6413 32.518 69.2306 32.63 68.9786 32.854C68.7359 33.078 68.6146 33.3673 68.6146 33.722ZM82.9846 31.356C83.9086 31.356 84.6506 31.678 85.2106 32.322C85.7799 32.966 86.0646 33.9367 86.0646 35.234C86.0646 36.0833 85.9339 36.802 85.6726 37.39C85.4206 37.9687 85.0613 38.4073 84.5946 38.706C84.1373 38.9953 83.5959 39.14 82.9706 39.14C82.5879 39.14 82.2473 39.0887 81.9486 38.986C81.6499 38.8833 81.3933 38.7527 81.1786 38.594C80.9733 38.426 80.7959 38.244 80.6466 38.048H80.5626C80.5813 38.2067 80.5999 38.4073 80.6186 38.65C80.6373 38.8927 80.6466 39.1027 80.6466 39.28V42.36H79.4146V31.496H80.4226L80.5906 32.518H80.6466C80.7959 32.3033 80.9733 32.1073 81.1786 31.93C81.3933 31.7527 81.6453 31.6127 81.9346 31.51C82.2333 31.4073 82.5833 31.356 82.9846 31.356ZM82.7606 32.392C82.2566 32.392 81.8506 32.49 81.5426 32.686C81.2346 32.8727 81.0106 33.1573 80.8706 33.54C80.7306 33.9227 80.6559 34.408 80.6466 34.996V35.234C80.6466 35.85 80.7119 36.3727 80.8426 36.802C80.9733 37.2313 81.1926 37.558 81.5006 37.782C81.8179 38.006 82.2473 38.118 82.7886 38.118C83.2459 38.118 83.6193 37.992 83.9086 37.74C84.2073 37.488 84.4266 37.1473 84.5666 36.718C84.7159 36.2793 84.7906 35.78 84.7906 35.22C84.7906 34.3613 84.6226 33.6753 84.2866 33.162C83.9599 32.6487 83.4513 32.392 82.7606 32.392ZM90.8699 31.37C91.7846 31.37 92.4612 31.5707 92.8999 31.972C93.3386 32.3733 93.5579 33.0127 93.5579 33.89V39H92.6619L92.4239 37.936H92.3679C92.1532 38.2067 91.9292 38.4353 91.6959 38.622C91.4719 38.7993 91.2106 38.93 90.9119 39.014C90.6226 39.098 90.2679 39.14 89.8479 39.14C89.3999 39.14 88.9939 39.0607 88.6299 38.902C88.2752 38.7433 87.9952 38.5007 87.7899 38.174C87.5846 37.838 87.4819 37.418 87.4819 36.914C87.4819 36.1673 87.7759 35.5933 88.3639 35.192C88.9519 34.7813 89.8572 34.5573 91.0799 34.52L92.3539 34.478V34.03C92.3539 33.4047 92.2186 32.9707 91.9479 32.728C91.6772 32.4853 91.2946 32.364 90.7999 32.364C90.4079 32.364 90.0346 32.4247 89.6799 32.546C89.3252 32.658 88.9939 32.7887 88.6859 32.938L88.3079 32.014C88.6346 31.8367 89.0219 31.6873 89.4699 31.566C89.9179 31.4353 90.3846 31.37 90.8699 31.37ZM91.2339 35.374C90.3006 35.4113 89.6519 35.5607 89.2879 35.822C88.9332 36.0833 88.7559 36.452 88.7559 36.928C88.7559 37.348 88.8819 37.656 89.1339 37.852C89.3952 38.048 89.7266 38.146 90.1279 38.146C90.7626 38.146 91.2899 37.9733 91.7099 37.628C92.1299 37.2733 92.3399 36.732 92.3399 36.004V35.332L91.2339 35.374ZM97.8495 31.356C98.4189 31.356 98.9135 31.4353 99.3335 31.594C99.7535 31.7433 100.08 31.9673 100.314 32.266C100.547 32.5553 100.664 32.91 100.664 33.33C100.664 33.7873 100.538 34.1513 100.286 34.422C100.034 34.6833 99.6882 34.8747 99.2495 34.996V35.052C99.5482 35.136 99.8235 35.2527 100.076 35.402C100.328 35.5513 100.528 35.7473 100.678 35.99C100.836 36.2327 100.916 36.5453 100.916 36.928C100.916 37.3387 100.799 37.712 100.566 38.048C100.342 38.384 99.9915 38.65 99.5155 38.846C99.0489 39.042 98.4469 39.14 97.7095 39.14C97.3549 39.14 97.0142 39.1213 96.6875 39.084C96.3702 39.0467 96.0809 38.9907 95.8195 38.916C95.5675 38.8413 95.3435 38.7527 95.1475 38.65V37.544C95.4649 37.6933 95.8382 37.8287 96.2675 37.95C96.7062 38.0713 97.1822 38.132 97.6955 38.132C98.0689 38.132 98.4049 38.09 98.7035 38.006C99.0115 37.922 99.2542 37.7913 99.4315 37.614C99.6089 37.4273 99.6975 37.1753 99.6975 36.858C99.6975 36.5687 99.6182 36.3353 99.4595 36.158C99.3009 35.9713 99.0629 35.8313 98.7455 35.738C98.4375 35.6447 98.0409 35.598 97.5555 35.598H96.5475V34.59H97.3595C98.0035 34.59 98.5169 34.506 98.8995 34.338C99.2915 34.1607 99.4875 33.862 99.4875 33.442C99.4875 33.0873 99.3382 32.8213 99.0395 32.644C98.7502 32.4667 98.3302 32.378 97.7795 32.378C97.3689 32.378 97.0049 32.42 96.6875 32.504C96.3795 32.5787 96.0389 32.6953 95.6655 32.854L95.2315 31.874C95.6329 31.6967 96.0529 31.566 96.4915 31.482C96.9302 31.398 97.3829 31.356 97.8495 31.356ZM106.309 31.356C107.233 31.356 107.975 31.678 108.535 32.322C109.104 32.966 109.389 33.9367 109.389 35.234C109.389 36.0833 109.258 36.802 108.997 37.39C108.745 37.9687 108.385 38.4073 107.919 38.706C107.461 38.9953 106.92 39.14 106.295 39.14C105.912 39.14 105.571 39.0887 105.273 38.986C104.974 38.8833 104.717 38.7527 104.503 38.594C104.297 38.426 104.12 38.244 103.971 38.048H103.887C103.905 38.2067 103.924 38.4073 103.943 38.65C103.961 38.8927 103.971 39.1027 103.971 39.28V42.36H102.739V31.496H103.747L103.915 32.518H103.971C104.12 32.3033 104.297 32.1073 104.503 31.93C104.717 31.7527 104.969 31.6127 105.259 31.51C105.557 31.4073 105.907 31.356 106.309 31.356ZM106.085 32.392C105.581 32.392 105.175 32.49 104.867 32.686C104.559 32.8727 104.335 33.1573 104.195 33.54C104.055 33.9227 103.98 34.408 103.971 34.996V35.234C103.971 35.85 104.036 36.3727 104.167 36.802C104.297 37.2313 104.517 37.558 104.825 37.782C105.142 38.006 105.571 38.118 106.113 38.118C106.57 38.118 106.943 37.992 107.233 37.74C107.531 37.488 107.751 37.1473 107.891 36.718C108.04 36.2793 108.115 35.78 108.115 35.22C108.115 34.3613 107.947 33.6753 107.611 33.162C107.284 32.6487 106.775 32.392 106.085 32.392ZM114.194 31.37C115.109 31.37 115.785 31.5707 116.224 31.972C116.663 32.3733 116.882 33.0127 116.882 33.89V39H115.986L115.748 37.936H115.692C115.477 38.2067 115.253 38.4353 115.02 38.622C114.796 38.7993 114.535 38.93 114.236 39.014C113.947 39.098 113.592 39.14 113.172 39.14C112.724 39.14 112.318 39.0607 111.954 38.902C111.599 38.7433 111.319 38.5007 111.114 38.174C110.909 37.838 110.806 37.418 110.806 36.914C110.806 36.1673 111.1 35.5933 111.688 35.192C112.276 34.7813 113.181 34.5573 114.404 34.52L115.678 34.478V34.03C115.678 33.4047 115.543 32.9707 115.272 32.728C115.001 32.4853 114.619 32.364 114.124 32.364C113.732 32.364 113.359 32.4247 113.004 32.546C112.649 32.658 112.318 32.7887 112.01 32.938L111.632 32.014C111.959 31.8367 112.346 31.6873 112.794 31.566C113.242 31.4353 113.709 31.37 114.194 31.37ZM114.558 35.374C113.625 35.4113 112.976 35.5607 112.612 35.822C112.257 36.0833 112.08 36.452 112.08 36.928C112.08 37.348 112.206 37.656 112.458 37.852C112.719 38.048 113.051 38.146 113.452 38.146C114.087 38.146 114.614 37.9733 115.034 37.628C115.454 37.2733 115.664 36.732 115.664 36.004V35.332L114.558 35.374ZM118.808 34.492C118.808 33.4 118.915 32.4713 119.13 31.706C119.354 30.9313 119.694 30.3153 120.152 29.858C120.618 29.3913 121.216 29.0787 121.944 28.92C122.55 28.7893 123.143 28.6727 123.722 28.57C124.3 28.4673 124.842 28.374 125.346 28.29L125.556 29.368C125.313 29.4053 125.042 29.452 124.744 29.508C124.445 29.5547 124.142 29.606 123.834 29.662C123.526 29.7087 123.227 29.76 122.938 29.816C122.658 29.8627 122.41 29.9093 122.196 29.956C121.888 30.0213 121.612 30.1333 121.37 30.292C121.127 30.4413 120.917 30.6467 120.74 30.908C120.572 31.1693 120.436 31.4913 120.334 31.874C120.231 32.2567 120.17 32.7093 120.152 33.232H120.236C120.366 33.0547 120.544 32.8727 120.768 32.686C121.001 32.4993 121.276 32.3407 121.594 32.21C121.92 32.0793 122.289 32.014 122.7 32.014C123.353 32.014 123.894 32.1587 124.324 32.448C124.762 32.728 125.089 33.12 125.304 33.624C125.528 34.128 125.64 34.716 125.64 35.388C125.64 36.2187 125.495 36.914 125.206 37.474C124.916 38.034 124.515 38.454 124.002 38.734C123.488 39.0047 122.891 39.14 122.21 39.14C121.696 39.14 121.23 39.042 120.81 38.846C120.39 38.6407 120.03 38.342 119.732 37.95C119.433 37.558 119.204 37.0727 119.046 36.494C118.887 35.9153 118.808 35.248 118.808 34.492ZM122.308 38.118C122.718 38.118 123.073 38.034 123.372 37.866C123.68 37.698 123.918 37.4227 124.086 37.04C124.254 36.6573 124.338 36.1487 124.338 35.514C124.338 34.7487 124.193 34.1467 123.904 33.708C123.624 33.26 123.157 33.036 122.504 33.036C122.093 33.036 121.72 33.1293 121.384 33.316C121.048 33.4933 120.768 33.6987 120.544 33.932C120.32 34.1653 120.161 34.3613 120.068 34.52C120.068 34.9773 120.1 35.4207 120.166 35.85C120.231 36.2793 120.343 36.6667 120.502 37.012C120.67 37.348 120.898 37.6187 121.188 37.824C121.486 38.02 121.86 38.118 122.308 38.118ZM134.105 35.234C134.105 35.8593 134.021 36.4147 133.853 36.9C133.694 37.376 133.461 37.782 133.153 38.118C132.854 38.454 132.485 38.7107 132.047 38.888C131.617 39.056 131.137 39.14 130.605 39.14C130.11 39.14 129.653 39.056 129.233 38.888C128.813 38.7107 128.449 38.454 128.141 38.118C127.833 37.782 127.59 37.376 127.413 36.9C127.245 36.4147 127.161 35.8593 127.161 35.234C127.161 34.4033 127.301 33.7033 127.581 33.134C127.861 32.5553 128.262 32.1167 128.785 31.818C129.307 31.51 129.928 31.356 130.647 31.356C131.328 31.356 131.925 31.51 132.439 31.818C132.961 32.1167 133.367 32.5553 133.657 33.134C133.955 33.7033 134.105 34.4033 134.105 35.234ZM128.435 35.234C128.435 35.822 128.509 36.3353 128.659 36.774C128.817 37.2033 129.06 37.5347 129.387 37.768C129.713 38.0013 130.129 38.118 130.633 38.118C131.137 38.118 131.552 38.0013 131.879 37.768C132.205 37.5347 132.443 37.2033 132.593 36.774C132.751 36.3353 132.831 35.822 132.831 35.234C132.831 34.6367 132.751 34.128 132.593 33.708C132.434 33.288 132.191 32.966 131.865 32.742C131.547 32.5087 131.132 32.392 130.619 32.392C129.853 32.392 129.298 32.644 128.953 33.148C128.607 33.652 128.435 34.3473 128.435 35.234ZM141.1 32.532H138.65V39H137.432V32.532H135.01V31.496H141.1V32.532ZM147.017 31.496H148.361L145.155 35.108L148.627 39H147.199L143.811 35.192V39H142.579V31.496H143.811V35.136L147.017 31.496ZM152.831 31.37C153.745 31.37 154.422 31.5707 154.861 31.972C155.299 32.3733 155.519 33.0127 155.519 33.89V39H154.623L154.385 37.936H154.329C154.114 38.2067 153.89 38.4353 153.657 38.622C153.433 38.7993 153.171 38.93 152.873 39.014C152.583 39.098 152.229 39.14 151.809 39.14C151.361 39.14 150.955 39.0607 150.591 38.902C150.236 38.7433 149.956 38.5007 149.751 38.174C149.545 37.838 149.443 37.418 149.443 36.914C149.443 36.1673 149.737 35.5933 150.325 35.192C150.913 34.7813 151.818 34.5573 153.041 34.52L154.315 34.478V34.03C154.315 33.4047 154.179 32.9707 153.909 32.728C153.638 32.4853 153.255 32.364 152.761 32.364C152.369 32.364 151.995 32.4247 151.641 32.546C151.286 32.658 150.955 32.7887 150.647 32.938L150.269 32.014C150.595 31.8367 150.983 31.6873 151.431 31.566C151.879 31.4353 152.345 31.37 152.831 31.37ZM153.195 35.374C152.261 35.4113 151.613 35.5607 151.249 35.822C150.894 36.0833 150.717 36.452 150.717 36.928C150.717 37.348 150.843 37.656 151.095 37.852C151.356 38.048 151.687 38.146 152.089 38.146C152.723 38.146 153.251 37.9733 153.671 37.628C154.091 37.2733 154.301 36.732 154.301 36.004V35.332L153.195 35.374ZM169.244 39H167.984V34.338H162.86V39H161.6V29.004H162.86V33.232H167.984V29.004H169.244V39ZM171.991 29.004H173.167V34.492C173.167 34.7253 173.162 34.982 173.153 35.262C173.153 35.5327 173.148 35.8033 173.139 36.074C173.13 36.3447 173.116 36.5873 173.097 36.802C173.088 37.0073 173.078 37.166 173.069 37.278H173.125L178.627 29.004H180.027V39H178.851V33.568C178.851 33.316 178.856 33.0453 178.865 32.756C178.874 32.4573 178.884 32.1727 178.893 31.902C178.912 31.622 178.926 31.3747 178.935 31.16C178.944 30.9453 178.954 30.7867 178.963 30.684H178.907L173.391 39H171.991V29.004ZM182.737 29.004H183.913V34.492C183.913 34.7253 183.909 34.982 183.899 35.262C183.899 35.5327 183.895 35.8033 183.885 36.074C183.876 36.3447 183.862 36.5873 183.843 36.802C183.834 37.0073 183.825 37.166 183.815 37.278H183.871L189.373 29.004H190.773V39H189.597V33.568C189.597 33.316 189.602 33.0453 189.611 32.756C189.621 32.4573 189.63 32.1727 189.639 31.902C189.658 31.622 189.672 31.3747 189.681 31.16C189.691 30.9453 189.7 30.7867 189.709 30.684H189.653L184.137 39H182.737V29.004ZM199.711 29.004C201.018 29.004 201.97 29.2607 202.567 29.774C203.164 30.2873 203.463 31.0107 203.463 31.944C203.463 32.3547 203.393 32.7513 203.253 33.134C203.122 33.5073 202.903 33.8433 202.595 34.142C202.287 34.4407 201.876 34.6787 201.363 34.856C200.85 35.024 200.22 35.108 199.473 35.108H198.325V39H197.065V29.004H199.711ZM199.599 30.082H198.325V34.03H199.333C199.968 34.03 200.495 33.9647 200.915 33.834C201.335 33.694 201.648 33.4747 201.853 33.176C202.058 32.8773 202.161 32.4853 202.161 32C202.161 31.356 201.956 30.8753 201.545 30.558C201.134 30.2407 200.486 30.082 199.599 30.082ZM211.898 35.234C211.898 35.8593 211.814 36.4147 211.646 36.9C211.487 37.376 211.254 37.782 210.946 38.118C210.647 38.454 210.278 38.7107 209.84 38.888C209.41 39.056 208.93 39.14 208.398 39.14C207.903 39.14 207.446 39.056 207.026 38.888C206.606 38.7107 206.242 38.454 205.934 38.118C205.626 37.782 205.383 37.376 205.206 36.9C205.038 36.4147 204.954 35.8593 204.954 35.234C204.954 34.4033 205.094 33.7033 205.374 33.134C205.654 32.5553 206.055 32.1167 206.578 31.818C207.1 31.51 207.721 31.356 208.44 31.356C209.121 31.356 209.718 31.51 210.232 31.818C210.754 32.1167 211.16 32.5553 211.45 33.134C211.748 33.7033 211.898 34.4033 211.898 35.234ZM206.228 35.234C206.228 35.822 206.302 36.3353 206.452 36.774C206.61 37.2033 206.853 37.5347 207.18 37.768C207.506 38.0013 207.922 38.118 208.426 38.118C208.93 38.118 209.345 38.0013 209.672 37.768C209.998 37.5347 210.236 37.2033 210.386 36.774C210.544 36.3353 210.624 35.822 210.624 35.234C210.624 34.6367 210.544 34.128 210.386 33.708C210.227 33.288 209.984 32.966 209.658 32.742C209.34 32.5087 208.925 32.392 208.412 32.392C207.646 32.392 207.091 32.644 206.746 33.148C206.4 33.652 206.228 34.3473 206.228 35.234ZM213.458 34.492C213.458 33.4 213.565 32.4713 213.78 31.706C214.004 30.9313 214.345 30.3153 214.802 29.858C215.269 29.3913 215.866 29.0787 216.594 28.92C217.201 28.7893 217.793 28.6727 218.372 28.57C218.951 28.4673 219.492 28.374 219.996 28.29L220.206 29.368C219.963 29.4053 219.693 29.452 219.394 29.508C219.095 29.5547 218.792 29.606 218.484 29.662C218.176 29.7087 217.877 29.76 217.588 29.816C217.308 29.8627 217.061 29.9093 216.846 29.956C216.538 30.0213 216.263 30.1333 216.02 30.292C215.777 30.4413 215.567 30.6467 215.39 30.908C215.222 31.1693 215.087 31.4913 214.984 31.874C214.881 32.2567 214.821 32.7093 214.802 33.232H214.886C215.017 33.0547 215.194 32.8727 215.418 32.686C215.651 32.4993 215.927 32.3407 216.244 32.21C216.571 32.0793 216.939 32.014 217.35 32.014C218.003 32.014 218.545 32.1587 218.974 32.448C219.413 32.728 219.739 33.12 219.954 33.624C220.178 34.128 220.29 34.716 220.29 35.388C220.29 36.2187 220.145 36.914 219.856 37.474C219.567 38.034 219.165 38.454 218.652 38.734C218.139 39.0047 217.541 39.14 216.86 39.14C216.347 39.14 215.88 39.042 215.46 38.846C215.04 38.6407 214.681 38.342 214.382 37.95C214.083 37.558 213.855 37.0727 213.696 36.494C213.537 35.9153 213.458 35.248 213.458 34.492ZM216.958 38.118C217.369 38.118 217.723 38.034 218.022 37.866C218.33 37.698 218.568 37.4227 218.736 37.04C218.904 36.6573 218.988 36.1487 218.988 35.514C218.988 34.7487 218.843 34.1467 218.554 33.708C218.274 33.26 217.807 33.036 217.154 33.036C216.743 33.036 216.37 33.1293 216.034 33.316C215.698 33.4933 215.418 33.6987 215.194 33.932C214.97 34.1653 214.811 34.3613 214.718 34.52C214.718 34.9773 214.751 35.4207 214.816 35.85C214.881 36.2793 214.993 36.6667 215.152 37.012C215.32 37.348 215.549 37.6187 215.838 37.824C216.137 38.02 216.51 38.118 216.958 38.118ZM228.755 35.234C228.755 35.8593 228.671 36.4147 228.503 36.9C228.344 37.376 228.111 37.782 227.803 38.118C227.504 38.454 227.136 38.7107 226.697 38.888C226.268 39.056 225.787 39.14 225.255 39.14C224.76 39.14 224.303 39.056 223.883 38.888C223.463 38.7107 223.099 38.454 222.791 38.118C222.483 37.782 222.24 37.376 222.063 36.9C221.895 36.4147 221.811 35.8593 221.811 35.234C221.811 34.4033 221.951 33.7033 222.231 33.134C222.511 32.5553 222.912 32.1167 223.435 31.818C223.958 31.51 224.578 31.356 225.297 31.356C225.978 31.356 226.576 31.51 227.089 31.818C227.612 32.1167 228.018 32.5553 228.307 33.134C228.606 33.7033 228.755 34.4033 228.755 35.234ZM223.085 35.234C223.085 35.822 223.16 36.3353 223.309 36.774C223.468 37.2033 223.71 37.5347 224.037 37.768C224.364 38.0013 224.779 38.118 225.283 38.118C225.787 38.118 226.202 38.0013 226.529 37.768C226.856 37.5347 227.094 37.2033 227.243 36.774C227.402 36.3353 227.481 35.822 227.481 35.234C227.481 34.6367 227.402 34.128 227.243 33.708C227.084 33.288 226.842 32.966 226.515 32.742C226.198 32.5087 225.782 32.392 225.269 32.392C224.504 32.392 223.948 32.644 223.603 33.148C223.258 33.652 223.085 34.3473 223.085 35.234ZM237.05 31.496V39H235.818V32.546H231.94V39H230.708V31.496H237.05ZM243.014 31.356C243.938 31.356 244.68 31.678 245.24 32.322C245.809 32.966 246.094 33.9367 246.094 35.234C246.094 36.0833 245.963 36.802 245.702 37.39C245.45 37.9687 245.091 38.4073 244.624 38.706C244.167 38.9953 243.625 39.14 243 39.14C242.617 39.14 242.277 39.0887 241.978 38.986C241.679 38.8833 241.423 38.7527 241.208 38.594C241.003 38.426 240.825 38.244 240.676 38.048H240.592C240.611 38.2067 240.629 38.4073 240.648 38.65C240.667 38.8927 240.676 39.1027 240.676 39.28V42.36H239.444V31.496H240.452L240.62 32.518H240.676C240.825 32.3033 241.003 32.1073 241.208 31.93C241.423 31.7527 241.675 31.6127 241.964 31.51C242.263 31.4073 242.613 31.356 243.014 31.356ZM242.79 32.392C242.286 32.392 241.88 32.49 241.572 32.686C241.264 32.8727 241.04 33.1573 240.9 33.54C240.76 33.9227 240.685 34.408 240.676 34.996V35.234C240.676 35.85 240.741 36.3727 240.872 36.802C241.003 37.2313 241.222 37.558 241.53 37.782C241.847 38.006 242.277 38.118 242.818 38.118C243.275 38.118 243.649 37.992 243.938 37.74C244.237 37.488 244.456 37.1473 244.596 36.718C244.745 36.2793 244.82 35.78 244.82 35.22C244.82 34.3613 244.652 33.6753 244.316 33.162C243.989 32.6487 243.481 32.392 242.79 32.392ZM254.581 35.234C254.581 35.8593 254.497 36.4147 254.329 36.9C254.171 37.376 253.937 37.782 253.629 38.118C253.331 38.454 252.962 38.7107 252.523 38.888C252.094 39.056 251.613 39.14 251.081 39.14C250.587 39.14 250.129 39.056 249.709 38.888C249.289 38.7107 248.925 38.454 248.617 38.118C248.309 37.782 248.067 37.376 247.889 36.9C247.721 36.4147 247.637 35.8593 247.637 35.234C247.637 34.4033 247.777 33.7033 248.057 33.134C248.337 32.5553 248.739 32.1167 249.261 31.818C249.784 31.51 250.405 31.356 251.123 31.356C251.805 31.356 252.402 31.51 252.915 31.818C253.438 32.1167 253.844 32.5553 254.133 33.134C254.432 33.7033 254.581 34.4033 254.581 35.234ZM248.911 35.234C248.911 35.822 248.986 36.3353 249.135 36.774C249.294 37.2033 249.537 37.5347 249.863 37.768C250.19 38.0013 250.605 38.118 251.109 38.118C251.613 38.118 252.029 38.0013 252.355 37.768C252.682 37.5347 252.92 37.2033 253.069 36.774C253.228 36.3353 253.307 35.822 253.307 35.234C253.307 34.6367 253.228 34.128 253.069 33.708C252.911 33.288 252.668 32.966 252.341 32.742C252.024 32.5087 251.609 32.392 251.095 32.392C250.33 32.392 249.775 32.644 249.429 33.148C249.084 33.652 248.911 34.3473 248.911 35.234ZM264.584 31.496V39H263.478V34.212C263.478 34.016 263.482 33.8107 263.492 33.596C263.51 33.3813 263.529 33.1713 263.548 32.966H263.506L261.056 39H260.02L257.64 32.966H257.598C257.616 33.1713 257.626 33.3813 257.626 33.596C257.635 33.8107 257.64 34.03 257.64 34.254V39H256.534V31.496H258.172L260.538 37.53L262.946 31.496H264.584ZM269.989 39.14C269.326 39.14 268.734 39.0047 268.211 38.734C267.698 38.4633 267.292 38.0433 266.993 37.474C266.704 36.9047 266.559 36.1767 266.559 35.29C266.559 34.366 266.713 33.6147 267.021 33.036C267.329 32.4573 267.744 32.0327 268.267 31.762C268.799 31.4913 269.401 31.356 270.073 31.356C270.456 31.356 270.824 31.398 271.179 31.482C271.534 31.5567 271.823 31.65 272.047 31.762L271.669 32.784C271.445 32.7 271.184 32.6207 270.885 32.546C270.586 32.4713 270.306 32.434 270.045 32.434C269.541 32.434 269.126 32.5413 268.799 32.756C268.472 32.9707 268.23 33.288 268.071 33.708C267.912 34.128 267.833 34.6507 267.833 35.276C267.833 35.8733 267.912 36.382 268.071 36.802C268.23 37.222 268.468 37.5393 268.785 37.754C269.102 37.9687 269.499 38.076 269.975 38.076C270.386 38.076 270.745 38.034 271.053 37.95C271.37 37.866 271.66 37.7633 271.921 37.642V38.734C271.669 38.8647 271.389 38.9627 271.081 39.028C270.782 39.1027 270.418 39.14 269.989 39.14ZM274.938 31.496V34.618H279.012V31.496H280.244V39H279.012V35.654H274.938V39H273.706V31.496H274.938ZM285.462 31.37C286.376 31.37 287.053 31.5707 287.492 31.972C287.93 32.3733 288.15 33.0127 288.15 33.89V39H287.254L287.016 37.936H286.96C286.745 38.2067 286.521 38.4353 286.288 38.622C286.064 38.7993 285.802 38.93 285.504 39.014C285.214 39.098 284.86 39.14 284.44 39.14C283.992 39.14 283.586 39.0607 283.222 38.902C282.867 38.7433 282.587 38.5007 282.382 38.174C282.176 37.838 282.074 37.418 282.074 36.914C282.074 36.1673 282.368 35.5933 282.956 35.192C283.544 34.7813 284.449 34.5573 285.672 34.52L286.946 34.478V34.03C286.946 33.4047 286.81 32.9707 286.54 32.728C286.269 32.4853 285.886 32.364 285.392 32.364C285 32.364 284.626 32.4247 284.272 32.546C283.917 32.658 283.586 32.7887 283.278 32.938L282.9 32.014C283.226 31.8367 283.614 31.6873 284.062 31.566C284.51 31.4353 284.976 31.37 285.462 31.37ZM285.826 35.374C284.892 35.4113 284.244 35.5607 283.88 35.822C283.525 36.0833 283.348 36.452 283.348 36.928C283.348 37.348 283.474 37.656 283.726 37.852C283.987 38.048 284.318 38.146 284.72 38.146C285.354 38.146 285.882 37.9733 286.302 37.628C286.722 37.2733 286.932 36.732 286.932 36.004V35.332L285.826 35.374ZM290.075 34.492C290.075 33.4 290.183 32.4713 290.397 31.706C290.621 30.9313 290.962 30.3153 291.419 29.858C291.886 29.3913 292.483 29.0787 293.211 28.92C293.818 28.7893 294.411 28.6727 294.989 28.57C295.568 28.4673 296.109 28.374 296.613 28.29L296.823 29.368C296.581 29.4053 296.31 29.452 296.011 29.508C295.713 29.5547 295.409 29.606 295.101 29.662C294.793 29.7087 294.495 29.76 294.205 29.816C293.925 29.8627 293.678 29.9093 293.463 29.956C293.155 30.0213 292.88 30.1333 292.637 30.292C292.395 30.4413 292.185 30.6467 292.007 30.908C291.839 31.1693 291.704 31.4913 291.601 31.874C291.499 32.2567 291.438 32.7093 291.419 33.232H291.503C291.634 33.0547 291.811 32.8727 292.035 32.686C292.269 32.4993 292.544 32.3407 292.861 32.21C293.188 32.0793 293.557 32.014 293.967 32.014C294.621 32.014 295.162 32.1587 295.591 32.448C296.03 32.728 296.357 33.12 296.571 33.624C296.795 34.128 296.907 34.716 296.907 35.388C296.907 36.2187 296.763 36.914 296.473 37.474C296.184 38.034 295.783 38.454 295.269 38.734C294.756 39.0047 294.159 39.14 293.477 39.14C292.964 39.14 292.497 39.042 292.077 38.846C291.657 38.6407 291.298 38.342 290.999 37.95C290.701 37.558 290.472 37.0727 290.313 36.494C290.155 35.9153 290.075 35.248 290.075 34.492ZM293.575 38.118C293.986 38.118 294.341 38.034 294.639 37.866C294.947 37.698 295.185 37.4227 295.353 37.04C295.521 36.6573 295.605 36.1487 295.605 35.514C295.605 34.7487 295.461 34.1467 295.171 33.708C294.891 33.26 294.425 33.036 293.771 33.036C293.361 33.036 292.987 33.1293 292.651 33.316C292.315 33.4933 292.035 33.6987 291.811 33.932C291.587 34.1653 291.429 34.3613 291.335 34.52C291.335 34.9773 291.368 35.4207 291.433 35.85C291.499 36.2793 291.611 36.6667 291.769 37.012C291.937 37.348 292.166 37.6187 292.455 37.824C292.754 38.02 293.127 38.118 293.575 38.118Z" fill="#9CB0BA"/>
</svg>
