<svg width="302" height="45" viewBox="0 0 302 45" fill="none" xmlns="http://www.w3.org/2000/svg">
<path d="M9.748 6.576V16.72H11.204V21.008H9.828V18H1.972V21.008H0.596V16.72H1.476C1.86 16.0587 2.22267 15.3173 2.564 14.496C2.916 13.6747 3.22533 12.816 3.492 11.92C3.75867 11.0133 3.97733 10.1067 4.148 9.2C4.31867 8.29333 4.42533 7.41867 4.468 6.576H9.748ZM5.732 7.872C5.68933 8.49067 5.58267 9.18933 5.412 9.968C5.252 10.7467 5.044 11.5467 4.788 12.368C4.54267 13.1787 4.26533 13.9627 3.956 14.72C3.65733 15.4773 3.33733 16.144 2.996 16.72H8.324V7.872H5.732ZM16.2345 9.264C16.9705 9.264 17.5998 9.424 18.1225 9.744C18.6558 10.064 19.0612 10.5173 19.3385 11.104C19.6265 11.68 19.7705 12.3573 19.7705 13.136V13.984H13.8985C13.9198 14.9547 14.1652 15.696 14.6345 16.208C15.1145 16.7093 15.7812 16.96 16.6345 16.96C17.1785 16.96 17.6585 16.912 18.0745 16.816C18.5012 16.7093 18.9385 16.56 19.3865 16.368V17.6C18.9492 17.792 18.5172 17.9307 18.0905 18.016C17.6638 18.112 17.1572 18.16 16.5705 18.16C15.7598 18.16 15.0398 17.9947 14.4105 17.664C13.7918 17.3333 13.3065 16.8427 12.9545 16.192C12.6132 15.5307 12.4425 14.7253 12.4425 13.776C12.4425 12.8373 12.5972 12.032 12.9065 11.36C13.2265 10.688 13.6692 10.1707 14.2345 9.808C14.8105 9.44533 15.4772 9.264 16.2345 9.264ZM16.2185 10.416C15.5465 10.416 15.0132 10.6347 14.6185 11.072C14.2345 11.4987 14.0052 12.096 13.9305 12.864H18.2985C18.2985 12.3733 18.2238 11.9467 18.0745 11.584C17.9252 11.2213 17.6958 10.9387 17.3865 10.736C17.0878 10.5227 16.6985 10.416 16.2185 10.416ZM28.8498 11.584C28.8498 12.1173 28.6898 12.5333 28.3698 12.832C28.0498 13.1307 27.6391 13.3333 27.1378 13.44V13.504C27.6711 13.5787 28.1351 13.7707 28.5298 14.08C28.9244 14.3787 29.1218 14.848 29.1218 15.488C29.1218 15.8507 29.0524 16.1867 28.9138 16.496C28.7858 16.8053 28.5831 17.072 28.3058 17.296C28.0284 17.52 27.6711 17.696 27.2338 17.824C26.7964 17.9413 26.2684 18 25.6498 18H21.9538V9.424H25.6338C26.2418 9.424 26.7858 9.49333 27.2658 9.632C27.7564 9.76 28.1404 9.984 28.4178 10.304C28.7058 10.6133 28.8498 11.04 28.8498 11.584ZM27.6658 15.488C27.6658 14.9973 27.4791 14.6453 27.1058 14.432C26.7324 14.2187 26.1831 14.112 25.4578 14.112H23.3618V16.864H25.4898C26.1938 16.864 26.7324 16.7627 27.1058 16.56C27.4791 16.3467 27.6658 15.9893 27.6658 15.488ZM27.4258 11.76C27.4258 11.3547 27.2764 11.0613 26.9778 10.88C26.6898 10.688 26.2151 10.592 25.5538 10.592H23.3618V12.944H25.2977C25.9911 12.944 26.5191 12.848 26.8818 12.656C27.2444 12.464 27.4258 12.1653 27.4258 11.76ZM29.8285 9.424H31.3325L33.1885 14.304C33.2952 14.592 33.3912 14.8693 33.4765 15.136C33.5725 15.4027 33.6578 15.664 33.7325 15.92C33.8072 16.1653 33.8658 16.4053 33.9085 16.64H33.9725C34.0365 16.3733 34.1378 16.0267 34.2765 15.6C34.4152 15.1627 34.5592 14.7253 34.7085 14.288L36.4525 9.424H37.9725L34.2765 19.184C34.0738 19.7173 33.8338 20.1813 33.5565 20.576C33.2898 20.9813 32.9592 21.2907 32.5645 21.504C32.1805 21.728 31.7112 21.84 31.1565 21.84C30.9005 21.84 30.6765 21.824 30.4845 21.792C30.2925 21.7707 30.1272 21.744 29.9885 21.712V20.592C30.1058 20.6133 30.2445 20.6347 30.4045 20.656C30.5752 20.6773 30.7512 20.688 30.9325 20.688C31.2632 20.688 31.5458 20.624 31.7805 20.496C32.0258 20.3787 32.2338 20.2027 32.4045 19.968C32.5752 19.744 32.7192 19.4773 32.8365 19.168L33.2845 18.032L29.8285 9.424ZM50.9608 9.424V18H39.3288V9.424H40.7368V16.816H44.4328V9.424H45.8408V16.816H49.5528V9.424H50.9608ZM58.7758 9.424H60.3118L56.6478 13.552L60.6158 18H58.9838L55.1118 13.648V18H53.7038V9.424H55.1118V13.584L58.7758 9.424ZM65.4205 9.28C66.4658 9.28 67.2392 9.50933 67.7405 9.968C68.2418 10.4267 68.4925 11.1573 68.4925 12.16V18H67.4685L67.1965 16.784H67.1325C66.8872 17.0933 66.6312 17.3547 66.3645 17.568C66.1085 17.7707 65.8098 17.92 65.4685 18.016C65.1378 18.112 64.7325 18.16 64.2525 18.16C63.7405 18.16 63.2765 18.0693 62.8605 17.888C62.4552 17.7067 62.1352 17.4293 61.9005 17.056C61.6658 16.672 61.5485 16.192 61.5485 15.616C61.5485 14.7627 61.8845 14.1067 62.5565 13.648C63.2285 13.1787 64.2632 12.9227 65.6605 12.88L67.1165 12.832V12.32C67.1165 11.6053 66.9618 11.1093 66.6525 10.832C66.3432 10.5547 65.9058 10.416 65.3405 10.416C64.8925 10.416 64.4658 10.4853 64.0605 10.624C63.6552 10.752 63.2765 10.9013 62.9245 11.072L62.4925 10.016C62.8658 9.81333 63.3085 9.64267 63.8205 9.504C64.3325 9.35467 64.8658 9.28 65.4205 9.28ZM65.8365 13.856C64.7698 13.8987 64.0285 14.0693 63.6125 14.368C63.2072 14.6667 63.0045 15.088 63.0045 15.632C63.0045 16.112 63.1485 16.464 63.4365 16.688C63.7352 16.912 64.1138 17.024 64.5725 17.024C65.2978 17.024 65.9005 16.8267 66.3805 16.432C66.8605 16.0267 67.1005 15.408 67.1005 14.576V13.808L65.8365 13.856ZM74.6059 14.656V13.152H79.3419V14.656H74.6059ZM88.9723 6.576C89.9216 6.576 90.7163 6.66667 91.3563 6.848C92.0069 7.02933 92.4923 7.328 92.8123 7.744C93.1429 8.16 93.3083 8.71467 93.3083 9.408C93.3083 9.856 93.2229 10.256 93.0523 10.608C92.8923 10.9493 92.6469 11.2373 92.3163 11.472C91.9963 11.696 91.6016 11.8507 91.1323 11.936V12.016C91.6123 12.0907 92.0443 12.2293 92.4283 12.432C92.8229 12.6347 93.1323 12.9227 93.3563 13.296C93.5803 13.6693 93.6923 14.1547 93.6923 14.752C93.6923 15.4453 93.5323 16.0373 93.2123 16.528C92.8923 17.008 92.4336 17.376 91.8363 17.632C91.2496 17.8773 90.5456 18 89.7243 18H85.7083V6.576H88.9723ZM89.2603 11.44C90.2416 11.44 90.9136 11.2853 91.2763 10.976C91.6389 10.656 91.8203 10.1867 91.8203 9.568C91.8203 8.93867 91.5963 8.49067 91.1483 8.224C90.7109 7.94667 90.0069 7.808 89.0363 7.808H87.1483V11.44H89.2603ZM87.1483 12.64V16.784H89.4523C90.4656 16.784 91.1696 16.5867 91.5643 16.192C91.9589 15.7973 92.1562 15.28 92.1562 14.64C92.1562 14.2347 92.0656 13.8827 91.8843 13.584C91.7136 13.2853 91.4203 13.056 91.0043 12.896C90.5989 12.7253 90.0443 12.64 89.3403 12.64H87.1483ZM99.2345 9.264C99.9705 9.264 100.6 9.424 101.123 9.744C101.656 10.064 102.061 10.5173 102.339 11.104C102.627 11.68 102.771 12.3573 102.771 13.136V13.984H96.8985C96.9198 14.9547 97.1652 15.696 97.6345 16.208C98.1145 16.7093 98.7812 16.96 99.6345 16.96C100.179 16.96 100.659 16.912 101.075 16.816C101.501 16.7093 101.939 16.56 102.387 16.368V17.6C101.949 17.792 101.517 17.9307 101.091 18.016C100.664 18.112 100.157 18.16 99.5705 18.16C98.7598 18.16 98.0398 17.9947 97.4105 17.664C96.7918 17.3333 96.3065 16.8427 95.9545 16.192C95.6132 15.5307 95.4425 14.7253 95.4425 13.776C95.4425 12.8373 95.5972 12.032 95.9065 11.36C96.2265 10.688 96.6692 10.1707 97.2345 9.808C97.8105 9.44533 98.4772 9.264 99.2345 9.264ZM99.2185 10.416C98.5465 10.416 98.0132 10.6347 97.6185 11.072C97.2345 11.4987 97.0052 12.096 96.9305 12.864H101.299C101.299 12.3733 101.224 11.9467 101.075 11.584C100.925 11.2213 100.696 10.9387 100.387 10.736C100.088 10.5227 99.6985 10.416 99.2185 10.416ZM108.394 18.16C107.636 18.16 106.959 18.0053 106.362 17.696C105.775 17.3867 105.311 16.9067 104.97 16.256C104.639 15.6053 104.474 14.7733 104.474 13.76C104.474 12.704 104.65 11.8453 105.002 11.184C105.354 10.5227 105.828 10.0373 106.426 9.728C107.034 9.41867 107.722 9.264 108.49 9.264C108.927 9.264 109.348 9.312 109.754 9.408C110.159 9.49333 110.49 9.6 110.746 9.728L110.314 10.896C110.058 10.8 109.759 10.7093 109.418 10.624C109.076 10.5387 108.756 10.496 108.458 10.496C107.882 10.496 107.407 10.6187 107.034 10.864C106.66 11.1093 106.383 11.472 106.202 11.952C106.02 12.432 105.93 13.0293 105.93 13.744C105.93 14.4267 106.02 15.008 106.202 15.488C106.383 15.968 106.655 16.3307 107.018 16.576C107.38 16.8213 107.834 16.944 108.378 16.944C108.847 16.944 109.258 16.896 109.61 16.8C109.972 16.704 110.303 16.5867 110.602 16.448V17.696C110.314 17.8453 109.994 17.9573 109.642 18.032C109.3 18.1173 108.884 18.16 108.394 18.16ZM114.049 9.424V12.992H118.705V9.424H120.113V18H118.705V14.176H114.049V18H112.641V9.424H114.049ZM126.077 9.28C127.122 9.28 127.895 9.50933 128.397 9.968C128.898 10.4267 129.149 11.1573 129.149 12.16V18H128.125L127.853 16.784H127.789C127.543 17.0933 127.287 17.3547 127.021 17.568C126.765 17.7707 126.466 17.92 126.125 18.016C125.794 18.112 125.389 18.16 124.909 18.16C124.397 18.16 123.933 18.0693 123.517 17.888C123.111 17.7067 122.791 17.4293 122.557 17.056C122.322 16.672 122.205 16.192 122.205 15.616C122.205 14.7627 122.541 14.1067 123.213 13.648C123.885 13.1787 124.919 12.9227 126.317 12.88L127.773 12.832V12.32C127.773 11.6053 127.618 11.1093 127.309 10.832C126.999 10.5547 126.562 10.416 125.997 10.416C125.549 10.416 125.122 10.4853 124.717 10.624C124.311 10.752 123.933 10.9013 123.581 11.072L123.149 10.016C123.522 9.81333 123.965 9.64267 124.477 9.504C124.989 9.35467 125.522 9.28 126.077 9.28ZM126.493 13.856C125.426 13.8987 124.685 14.0693 124.269 14.368C123.863 14.6667 123.661 15.088 123.661 15.632C123.661 16.112 123.805 16.464 124.093 16.688C124.391 16.912 124.77 17.024 125.229 17.024C125.954 17.024 126.557 16.8267 127.037 16.432C127.517 16.0267 127.757 15.408 127.757 14.576V13.808L126.493 13.856Z" fill="white"/>
<path d="M10.58 33.988C10.58 34.7627 10.482 35.4673 10.286 36.102C10.09 36.7273 9.796 37.2687 9.404 37.726C9.02133 38.1833 8.54067 38.5333 7.962 38.776C7.39267 39.0187 6.73 39.14 5.974 39.14C5.19 39.14 4.50867 39.0187 3.93 38.776C3.35133 38.524 2.87067 38.174 2.488 37.726C2.10533 37.2687 1.82067 36.7227 1.634 36.088C1.44733 35.4533 1.354 34.7487 1.354 33.974C1.354 32.9473 1.522 32.0513 1.858 31.286C2.194 30.5207 2.70267 29.9233 3.384 29.494C4.07467 29.0647 4.94267 28.85 5.988 28.85C6.98667 28.85 7.82667 29.0647 8.508 29.494C9.18933 29.914 9.70267 30.5113 10.048 31.286C10.4027 32.0513 10.58 32.952 10.58 33.988ZM2.684 33.988C2.684 34.828 2.80067 35.5513 3.034 36.158C3.26733 36.7647 3.62667 37.2313 4.112 37.558C4.60667 37.8847 5.22733 38.048 5.974 38.048C6.73 38.048 7.346 37.8847 7.822 37.558C8.30733 37.2313 8.66667 36.7647 8.9 36.158C9.13333 35.5513 9.25 34.828 9.25 33.988C9.25 32.728 8.98867 31.7433 8.466 31.034C7.94333 30.3153 7.11733 29.956 5.988 29.956C5.232 29.956 4.60667 30.1193 4.112 30.446C3.62667 30.7633 3.26733 31.2253 3.034 31.832C2.80067 32.4293 2.684 33.148 2.684 33.988ZM13.8595 31.496V34.618H17.9335V31.496H19.1655V39H17.9335V35.654H13.8595V39H12.6275V31.496H13.8595ZM24.3836 31.37C25.2982 31.37 25.9749 31.5707 26.4136 31.972C26.8522 32.3733 27.0716 33.0127 27.0716 33.89V39H26.1756L25.9376 37.936H25.8816C25.6669 38.2067 25.4429 38.4353 25.2096 38.622C24.9856 38.7993 24.7242 38.93 24.4256 39.014C24.1362 39.098 23.7816 39.14 23.3616 39.14C22.9136 39.14 22.5076 39.0607 22.1436 38.902C21.7889 38.7433 21.5089 38.5007 21.3036 38.174C21.0982 37.838 20.9956 37.418 20.9956 36.914C20.9956 36.1673 21.2896 35.5933 21.8776 35.192C22.4656 34.7813 23.3709 34.5573 24.5936 34.52L25.8676 34.478V34.03C25.8676 33.4047 25.7322 32.9707 25.4616 32.728C25.1909 32.4853 24.8082 32.364 24.3136 32.364C23.9216 32.364 23.5482 32.4247 23.1936 32.546C22.8389 32.658 22.5076 32.7887 22.1996 32.938L21.8216 32.014C22.1482 31.8367 22.5356 31.6873 22.9836 31.566C23.4316 31.4353 23.8982 31.37 24.3836 31.37ZM24.7476 35.374C23.8142 35.4113 23.1656 35.5607 22.8016 35.822C22.4469 36.0833 22.2696 36.452 22.2696 36.928C22.2696 37.348 22.3956 37.656 22.6476 37.852C22.9089 38.048 23.2402 38.146 23.6416 38.146C24.2762 38.146 24.8036 37.9733 25.2236 37.628C25.6436 37.2733 25.8536 36.732 25.8536 36.004V35.332L24.7476 35.374ZM39.0189 33.386C39.0189 33.8527 38.8789 34.2167 38.5989 34.478C38.3189 34.7393 37.9596 34.9167 37.5209 35.01V35.066C37.9876 35.1313 38.3936 35.2993 38.7389 35.57C39.0843 35.8313 39.2569 36.242 39.2569 36.802C39.2569 37.1193 39.1963 37.4133 39.0749 37.684C38.9629 37.9547 38.7856 38.188 38.5429 38.384C38.3003 38.58 37.9876 38.734 37.6049 38.846C37.2223 38.9487 36.7603 39 36.2189 39H32.9849V31.496H36.2049C36.7369 31.496 37.2129 31.5567 37.6329 31.678C38.0623 31.79 38.3983 31.986 38.6409 32.266C38.8929 32.5367 39.0189 32.91 39.0189 33.386ZM37.9829 36.802C37.9829 36.3727 37.8196 36.0647 37.4929 35.878C37.1663 35.6913 36.6856 35.598 36.0509 35.598H34.2169V38.006H36.0789C36.6949 38.006 37.1663 37.9173 37.4929 37.74C37.8196 37.5533 37.9829 37.2407 37.9829 36.802ZM37.7729 33.54C37.7729 33.1853 37.6423 32.9287 37.3809 32.77C37.1289 32.602 36.7136 32.518 36.1349 32.518H34.2169V34.576H35.9109C36.5176 34.576 36.9796 34.492 37.2969 34.324C37.6143 34.156 37.7729 33.8947 37.7729 33.54ZM44.6213 31.356C45.5453 31.356 46.2873 31.678 46.8473 32.322C47.4167 32.966 47.7013 33.9367 47.7013 35.234C47.7013 36.0833 47.5707 36.802 47.3093 37.39C47.0573 37.9687 46.698 38.4073 46.2313 38.706C45.774 38.9953 45.2327 39.14 44.6073 39.14C44.2247 39.14 43.884 39.0887 43.5853 38.986C43.2867 38.8833 43.03 38.7527 42.8153 38.594C42.61 38.426 42.4327 38.244 42.2833 38.048H42.1993C42.218 38.2067 42.2367 38.4073 42.2553 38.65C42.274 38.8927 42.2833 39.1027 42.2833 39.28V42.36H41.0513V31.496H42.0593L42.2273 32.518H42.2833C42.4327 32.3033 42.61 32.1073 42.8153 31.93C43.03 31.7527 43.282 31.6127 43.5713 31.51C43.87 31.4073 44.22 31.356 44.6213 31.356ZM44.3973 32.392C43.8933 32.392 43.4873 32.49 43.1793 32.686C42.8713 32.8727 42.6473 33.1573 42.5073 33.54C42.3673 33.9227 42.2927 34.408 42.2833 34.996V35.234C42.2833 35.85 42.3487 36.3727 42.4793 36.802C42.61 37.2313 42.8293 37.558 43.1373 37.782C43.4547 38.006 43.884 38.118 44.4253 38.118C44.8827 38.118 45.256 37.992 45.5453 37.74C45.844 37.488 46.0633 37.1473 46.2033 36.718C46.3527 36.2793 46.4273 35.78 46.4273 35.22C46.4273 34.3613 46.2593 33.6753 45.9233 33.162C45.5967 32.6487 45.088 32.392 44.3973 32.392ZM56.1886 35.234C56.1886 35.8593 56.1046 36.4147 55.9366 36.9C55.7779 37.376 55.5446 37.782 55.2366 38.118C54.9379 38.454 54.5693 38.7107 54.1306 38.888C53.7013 39.056 53.2206 39.14 52.6886 39.14C52.1939 39.14 51.7366 39.056 51.3166 38.888C50.8966 38.7107 50.5326 38.454 50.2246 38.118C49.9166 37.782 49.6739 37.376 49.4966 36.9C49.3286 36.4147 49.2446 35.8593 49.2446 35.234C49.2446 34.4033 49.3846 33.7033 49.6646 33.134C49.9446 32.5553 50.3459 32.1167 50.8686 31.818C51.3913 31.51 52.0119 31.356 52.7306 31.356C53.4119 31.356 54.0093 31.51 54.5226 31.818C55.0453 32.1167 55.4513 32.5553 55.7406 33.134C56.0393 33.7033 56.1886 34.4033 56.1886 35.234ZM50.5186 35.234C50.5186 35.822 50.5933 36.3353 50.7426 36.774C50.9013 37.2033 51.1439 37.5347 51.4706 37.768C51.7973 38.0013 52.2126 38.118 52.7166 38.118C53.2206 38.118 53.6359 38.0013 53.9626 37.768C54.2893 37.5347 54.5273 37.2033 54.6766 36.774C54.8353 36.3353 54.9146 35.822 54.9146 35.234C54.9146 34.6367 54.8353 34.128 54.6766 33.708C54.5179 33.288 54.2753 32.966 53.9486 32.742C53.6313 32.5087 53.2159 32.392 52.7026 32.392C51.9373 32.392 51.3819 32.644 51.0366 33.148C50.6913 33.652 50.5186 34.3473 50.5186 35.234ZM63.7132 31.496V37.964H64.8052V41.604H63.6152V39H58.3932V41.604H57.2172V37.964H57.8192C58.2485 37.3667 58.6032 36.718 58.8832 36.018C59.1725 35.3087 59.3872 34.5713 59.5272 33.806C59.6765 33.0313 59.7558 32.2613 59.7652 31.496H63.7132ZM60.8572 32.462C60.8198 33.0967 60.7218 33.7547 60.5632 34.436C60.4045 35.108 60.1992 35.752 59.9472 36.368C59.7045 36.984 59.4198 37.516 59.0932 37.964H62.5232V32.462H60.8572ZM69.1739 31.356C69.8179 31.356 70.3686 31.496 70.8259 31.776C71.2926 32.056 71.6473 32.4527 71.8899 32.966C72.1419 33.47 72.2679 34.0627 72.2679 34.744V35.486H67.1299C67.1486 36.3353 67.3633 36.984 67.7739 37.432C68.1939 37.8707 68.7773 38.09 69.5239 38.09C69.9999 38.09 70.4199 38.048 70.7839 37.964C71.1573 37.8707 71.5399 37.74 71.9319 37.572V38.65C71.5493 38.818 71.1713 38.9393 70.7979 39.014C70.4246 39.098 69.9813 39.14 69.4679 39.14C68.7586 39.14 68.1286 38.9953 67.5779 38.706C67.0366 38.4167 66.6119 37.9873 66.3039 37.418C66.0053 36.8393 65.8559 36.1347 65.8559 35.304C65.8559 34.4827 65.9913 33.778 66.2619 33.19C66.5419 32.602 66.9293 32.1493 67.4239 31.832C67.9279 31.5147 68.5113 31.356 69.1739 31.356ZM69.1599 32.364C68.5719 32.364 68.1053 32.5553 67.7599 32.938C67.4239 33.3113 67.2233 33.834 67.1579 34.506H70.9799C70.9799 34.0767 70.9146 33.7033 70.7839 33.386C70.6533 33.0687 70.4526 32.8213 70.1819 32.644C69.9206 32.4573 69.5799 32.364 69.1599 32.364ZM79.552 35.164L76.962 31.496H78.362L80.294 34.324L82.212 31.496H83.598L81.008 35.164L83.738 39H82.338L80.294 36.004L78.222 39H76.836L79.552 35.164ZM88.7541 31.356C89.6781 31.356 90.4201 31.678 90.9801 32.322C91.5495 32.966 91.8341 33.9367 91.8341 35.234C91.8341 36.0833 91.7035 36.802 91.4421 37.39C91.1901 37.9687 90.8308 38.4073 90.3641 38.706C89.9068 38.9953 89.3655 39.14 88.7401 39.14C88.3575 39.14 88.0168 39.0887 87.7181 38.986C87.4195 38.8833 87.1628 38.7527 86.9481 38.594C86.7428 38.426 86.5655 38.244 86.4161 38.048H86.3321C86.3508 38.2067 86.3695 38.4073 86.3881 38.65C86.4068 38.8927 86.4161 39.1027 86.4161 39.28V42.36H85.1841V31.496H86.1921L86.3601 32.518H86.4161C86.5655 32.3033 86.7428 32.1073 86.9481 31.93C87.1628 31.7527 87.4148 31.6127 87.7041 31.51C88.0028 31.4073 88.3528 31.356 88.7541 31.356ZM88.5301 32.392C88.0261 32.392 87.6201 32.49 87.3121 32.686C87.0041 32.8727 86.7801 33.1573 86.6401 33.54C86.5001 33.9227 86.4255 34.408 86.4161 34.996V35.234C86.4161 35.85 86.4815 36.3727 86.6121 36.802C86.7428 37.2313 86.9621 37.558 87.2701 37.782C87.5875 38.006 88.0168 38.118 88.5581 38.118C89.0155 38.118 89.3888 37.992 89.6781 37.74C89.9768 37.488 90.1961 37.1473 90.3361 36.718C90.4855 36.2793 90.5601 35.78 90.5601 35.22C90.5601 34.3613 90.3921 33.6753 90.0561 33.162C89.7295 32.6487 89.2208 32.392 88.5301 32.392ZM92.4847 31.496H93.8007L95.4247 35.766C95.518 36.018 95.602 36.2607 95.6767 36.494C95.7607 36.7273 95.8354 36.956 95.9007 37.18C95.966 37.3947 96.0174 37.6047 96.0547 37.81H96.1107C96.1667 37.5767 96.2554 37.2733 96.3767 36.9C96.498 36.5173 96.624 36.1347 96.7547 35.752L98.2807 31.496H99.6107L96.3767 40.036C96.1994 40.5027 95.9894 40.9087 95.7467 41.254C95.5134 41.6087 95.224 41.8793 94.8787 42.066C94.5427 42.262 94.132 42.36 93.6467 42.36C93.4227 42.36 93.2267 42.346 93.0587 42.318C92.8907 42.2993 92.746 42.276 92.6247 42.248V41.268C92.7274 41.2867 92.8487 41.3053 92.9887 41.324C93.138 41.3427 93.292 41.352 93.4507 41.352C93.74 41.352 93.9874 41.296 94.1927 41.184C94.4074 41.0813 94.5894 40.9273 94.7387 40.722C94.888 40.526 95.014 40.2927 95.1167 40.022L95.5087 39.028L92.4847 31.496ZM107.139 31.496V39H105.907V32.546H102.029V39H100.797V31.496H107.139ZM113.972 31.496H115.316L112.11 35.108L115.582 39H114.154L110.766 35.192V39H109.534V31.496H110.766V35.136L113.972 31.496ZM119.786 31.37C120.701 31.37 121.377 31.5707 121.816 31.972C122.255 32.3733 122.474 33.0127 122.474 33.89V39H121.578L121.34 37.936H121.284C121.069 38.2067 120.845 38.4353 120.612 38.622C120.388 38.7993 120.127 38.93 119.828 39.014C119.539 39.098 119.184 39.14 118.764 39.14C118.316 39.14 117.91 39.0607 117.546 38.902C117.191 38.7433 116.911 38.5007 116.706 38.174C116.501 37.838 116.398 37.418 116.398 36.914C116.398 36.1673 116.692 35.5933 117.28 35.192C117.868 34.7813 118.773 34.5573 119.996 34.52L121.27 34.478V34.03C121.27 33.4047 121.135 32.9707 120.864 32.728C120.593 32.4853 120.211 32.364 119.716 32.364C119.324 32.364 118.951 32.4247 118.596 32.546C118.241 32.658 117.91 32.7887 117.602 32.938L117.224 32.014C117.551 31.8367 117.938 31.6873 118.386 31.566C118.834 31.4353 119.301 31.37 119.786 31.37ZM120.15 35.374C119.217 35.4113 118.568 35.5607 118.204 35.822C117.849 36.0833 117.672 36.452 117.672 36.928C117.672 37.348 117.798 37.656 118.05 37.852C118.311 38.048 118.643 38.146 119.044 38.146C119.679 38.146 120.206 37.9733 120.626 37.628C121.046 37.2733 121.256 36.732 121.256 36.004V35.332L120.15 35.374ZM125.254 39H123.826L125.968 35.85C125.678 35.7753 125.398 35.6587 125.128 35.5C124.857 35.332 124.638 35.1033 124.47 34.814C124.302 34.5153 124.218 34.1467 124.218 33.708C124.218 32.9893 124.46 32.4433 124.946 32.07C125.431 31.6873 126.075 31.496 126.878 31.496H130.238V39H129.006V36.018H127.186L125.254 39ZM125.408 33.722C125.408 34.1513 125.566 34.4733 125.884 34.688C126.21 34.8933 126.663 34.996 127.242 34.996H129.006V32.518H127.004C126.434 32.518 126.024 32.63 125.772 32.854C125.529 33.078 125.408 33.3673 125.408 33.722ZM132.472 40.75V40.05H132.878C133.214 40.05 133.382 39.882 133.382 39.546V39.098H133.186C132.915 39.098 132.687 39.014 132.5 38.846C132.323 38.678 132.234 38.468 132.234 38.216C132.234 37.9453 132.323 37.726 132.5 37.558C132.687 37.39 132.915 37.306 133.186 37.306C133.457 37.306 133.681 37.3947 133.858 37.572C134.035 37.7493 134.124 37.9733 134.124 38.244V39.546C134.124 40.3487 133.723 40.75 132.92 40.75H132.472ZM140.488 31.496V34.618H144.562V31.496H145.794V39H144.562V35.654H140.488V39H139.256V31.496H140.488ZM154.694 35.234C154.694 35.8593 154.61 36.4147 154.442 36.9C154.284 37.376 154.05 37.782 153.742 38.118C153.444 38.454 153.075 38.7107 152.636 38.888C152.207 39.056 151.726 39.14 151.194 39.14C150.7 39.14 150.242 39.056 149.822 38.888C149.402 38.7107 149.038 38.454 148.73 38.118C148.422 37.782 148.18 37.376 148.002 36.9C147.834 36.4147 147.75 35.8593 147.75 35.234C147.75 34.4033 147.89 33.7033 148.17 33.134C148.45 32.5553 148.852 32.1167 149.374 31.818C149.897 31.51 150.518 31.356 151.236 31.356C151.918 31.356 152.515 31.51 153.028 31.818C153.551 32.1167 153.957 32.5553 154.246 33.134C154.545 33.7033 154.694 34.4033 154.694 35.234ZM149.024 35.234C149.024 35.822 149.099 36.3353 149.248 36.774C149.407 37.2033 149.65 37.5347 149.976 37.768C150.303 38.0013 150.718 38.118 151.222 38.118C151.726 38.118 152.142 38.0013 152.468 37.768C152.795 37.5347 153.033 37.2033 153.182 36.774C153.341 36.3353 153.42 35.822 153.42 35.234C153.42 34.6367 153.341 34.128 153.182 33.708C153.024 33.288 152.781 32.966 152.454 32.742C152.137 32.5087 151.722 32.392 151.208 32.392C150.443 32.392 149.888 32.644 149.542 33.148C149.197 33.652 149.024 34.3473 149.024 35.234ZM165.955 39H164.709V32.518H162.497C162.403 33.7033 162.287 34.716 162.147 35.556C162.007 36.3867 161.829 37.0633 161.615 37.586C161.4 38.1087 161.143 38.4913 160.845 38.734C160.546 38.9767 160.196 39.098 159.795 39.098C159.673 39.098 159.552 39.0887 159.431 39.07C159.319 39.0607 159.225 39.0373 159.151 39V38.076C159.207 38.0947 159.267 38.1087 159.333 38.118C159.398 38.1273 159.463 38.132 159.529 38.132C159.734 38.132 159.921 38.048 160.089 37.88C160.257 37.712 160.406 37.4553 160.537 37.11C160.677 36.7647 160.803 36.3307 160.915 35.808C161.027 35.276 161.125 34.6507 161.209 33.932C161.293 33.2133 161.367 32.4013 161.433 31.496H165.955V39ZM174.86 35.234C174.86 35.8593 174.776 36.4147 174.608 36.9C174.45 37.376 174.216 37.782 173.908 38.118C173.61 38.454 173.241 38.7107 172.802 38.888C172.373 39.056 171.892 39.14 171.36 39.14C170.866 39.14 170.408 39.056 169.988 38.888C169.568 38.7107 169.204 38.454 168.896 38.118C168.588 37.782 168.346 37.376 168.168 36.9C168 36.4147 167.916 35.8593 167.916 35.234C167.916 34.4033 168.056 33.7033 168.336 33.134C168.616 32.5553 169.018 32.1167 169.54 31.818C170.063 31.51 170.684 31.356 171.402 31.356C172.084 31.356 172.681 31.51 173.194 31.818C173.717 32.1167 174.123 32.5553 174.412 33.134C174.711 33.7033 174.86 34.4033 174.86 35.234ZM169.19 35.234C169.19 35.822 169.265 36.3353 169.414 36.774C169.573 37.2033 169.816 37.5347 170.142 37.768C170.469 38.0013 170.884 38.118 171.388 38.118C171.892 38.118 172.308 38.0013 172.634 37.768C172.961 37.5347 173.199 37.2033 173.348 36.774C173.507 36.3353 173.586 35.822 173.586 35.234C173.586 34.6367 173.507 34.128 173.348 33.708C173.19 33.288 172.947 32.966 172.62 32.742C172.303 32.5087 171.888 32.392 171.374 32.392C170.609 32.392 170.054 32.644 169.708 33.148C169.363 33.652 169.19 34.3473 169.19 35.234ZM182.847 33.386C182.847 33.8527 182.707 34.2167 182.427 34.478C182.147 34.7393 181.788 34.9167 181.349 35.01V35.066C181.816 35.1313 182.222 35.2993 182.567 35.57C182.912 35.8313 183.085 36.242 183.085 36.802C183.085 37.1193 183.024 37.4133 182.903 37.684C182.791 37.9547 182.614 38.188 182.371 38.384C182.128 38.58 181.816 38.734 181.433 38.846C181.05 38.9487 180.588 39 180.047 39H176.813V31.496H180.033C180.565 31.496 181.041 31.5567 181.461 31.678C181.89 31.79 182.226 31.986 182.469 32.266C182.721 32.5367 182.847 32.91 182.847 33.386ZM181.811 36.802C181.811 36.3727 181.648 36.0647 181.321 35.878C180.994 35.6913 180.514 35.598 179.879 35.598H178.045V38.006H179.907C180.523 38.006 180.994 37.9173 181.321 37.74C181.648 37.5533 181.811 37.2407 181.811 36.802ZM181.601 33.54C181.601 33.1853 181.47 32.9287 181.209 32.77C180.957 32.602 180.542 32.518 179.963 32.518H178.045V34.576H179.739C180.346 34.576 180.808 34.492 181.125 34.324C181.442 34.156 181.601 33.8947 181.601 33.54ZM189.317 31.496H190.661L187.455 35.108L190.927 39H189.499L186.111 35.192V39H184.879V31.496H186.111V35.136L189.317 31.496ZM195.132 31.37C196.046 31.37 196.723 31.5707 197.162 31.972C197.6 32.3733 197.82 33.0127 197.82 33.89V39H196.924L196.686 37.936H196.63C196.415 38.2067 196.191 38.4353 195.958 38.622C195.734 38.7993 195.472 38.93 195.174 39.014C194.884 39.098 194.53 39.14 194.11 39.14C193.662 39.14 193.256 39.0607 192.892 38.902C192.537 38.7433 192.257 38.5007 192.052 38.174C191.846 37.838 191.744 37.418 191.744 36.914C191.744 36.1673 192.038 35.5933 192.626 35.192C193.214 34.7813 194.119 34.5573 195.342 34.52L196.616 34.478V34.03C196.616 33.4047 196.48 32.9707 196.21 32.728C195.939 32.4853 195.556 32.364 195.062 32.364C194.67 32.364 194.296 32.4247 193.942 32.546C193.587 32.658 193.256 32.7887 192.948 32.938L192.57 32.014C192.896 31.8367 193.284 31.6873 193.732 31.566C194.18 31.4353 194.646 31.37 195.132 31.37ZM195.496 35.374C194.562 35.4113 193.914 35.5607 193.55 35.822C193.195 36.0833 193.018 36.452 193.018 36.928C193.018 37.348 193.144 37.656 193.396 37.852C193.657 38.048 193.988 38.146 194.39 38.146C195.024 38.146 195.552 37.9733 195.972 37.628C196.392 37.2733 196.602 36.732 196.602 36.004V35.332L195.496 35.374ZM200.599 39H199.171L201.313 35.85C201.024 35.7753 200.744 35.6587 200.473 35.5C200.203 35.332 199.983 35.1033 199.815 34.814C199.647 34.5153 199.563 34.1467 199.563 33.708C199.563 32.9893 199.806 32.4433 200.291 32.07C200.777 31.6873 201.421 31.496 202.223 31.496H205.583V39H204.351V36.018H202.531L200.599 39ZM200.753 33.722C200.753 34.1513 200.912 34.4733 201.229 34.688C201.556 34.8933 202.009 34.996 202.587 34.996H204.351V32.518H202.349C201.78 32.518 201.369 32.63 201.117 32.854C200.875 33.078 200.753 33.3673 200.753 33.722Z" fill="#9CB0BA"/>
</svg>
